<?xml version="1.0" encoding="utf-8"?>
<svg id="svg" version="1.1" xmlns="http://www.w3.org/2000/svg" xmlns:xlink="http://www.w3.org/1999/xlink" width="400" height="450.1333333333333" viewBox="0, 0, 400,450.1333333333333">
    <g id="svgg">
        <path id="path0" d="M0.000 225.000 L 0.000 450.000 200.000 450.000 L 400.000 450.000 400.000 225.000 L 400.000 0.000 200.000 0.000 L 0.000 0.000 0.000 225.000 M215.000 43.226 C 215.880 43.421,217.346 43.585,218.257 43.590 C 220.475 43.603,229.019 45.307,232.400 46.410 C 232.950 46.589,234.480 47.044,235.800 47.421 C 237.861 48.009,240.874 49.293,246.253 51.874 C 246.942 52.205,248.332 53.133,249.341 53.938 C 250.351 54.742,252.106 56.120,253.240 57.000 C 254.375 57.880,255.589 59.050,255.940 59.600 C 256.290 60.150,257.247 61.410,258.067 62.401 C 262.980 68.336,263.737 71.412,263.919 86.193 C 264.003 93.009,264.233 98.887,264.430 99.257 C 264.751 99.856,266.039 99.943,276.495 100.073 C 287.610 100.210,288.295 100.263,290.078 101.109 C 291.111 101.599,292.240 102.000,292.586 102.000 C 293.508 102.000,299.792 105.044,301.987 106.554 C 306.539 109.685,314.142 119.302,315.596 123.767 C 315.877 124.630,316.423 125.890,316.809 126.567 C 317.195 127.245,317.913 129.150,318.404 130.800 C 318.895 132.450,319.455 133.971,319.649 134.180 C 319.842 134.389,320.000 135.253,320.000 136.100 C 320.000 136.947,320.243 138.126,320.540 138.720 C 322.377 142.398,323.139 178.329,321.521 185.000 C 320.592 188.829,320.055 191.082,319.578 193.154 C 319.356 194.118,318.719 195.903,318.163 197.119 C 317.162 199.306,316.170 201.848,315.710 203.400 C 315.580 203.840,315.043 204.719,314.517 205.353 C 313.992 205.988,313.227 207.162,312.819 207.963 C 310.979 211.569,301.210 220.703,297.811 221.996 C 297.351 222.171,296.170 222.682,295.187 223.133 C 289.359 225.803,285.350 226.444,273.928 226.532 C 268.943 226.571,264.715 226.752,264.532 226.935 C 264.349 227.118,264.156 233.687,264.102 241.534 C 264.001 256.194,263.749 258.888,262.207 261.845 C 261.876 262.480,261.604 263.164,261.602 263.365 C 261.592 264.891,255.348 272.230,253.000 273.475 C 252.340 273.825,251.710 274.230,251.600 274.375 C 250.714 275.542,245.451 278.302,241.570 279.635 C 240.157 280.121,238.907 280.659,238.794 280.831 C 238.609 281.112,233.537 282.398,227.000 283.823 C 216.111 286.196,186.872 285.935,176.144 283.370 C 173.913 282.836,171.821 282.400,171.495 282.400 C 168.684 282.400,154.536 276.157,153.237 274.344 C 152.928 273.912,152.110 273.322,151.419 273.034 C 149.653 272.296,145.455 268.306,144.211 266.183 C 143.636 265.202,142.997 264.400,142.791 264.400 C 142.306 264.400,140.293 260.034,139.471 257.200 C 138.188 252.776,138.000 250.553,138.000 239.829 C 138.000 231.358,137.883 228.801,137.481 228.467 C 137.148 228.191,132.950 227.980,125.781 227.879 C 119.631 227.792,113.700 227.525,112.600 227.285 C 110.082 226.735,104.123 224.252,102.800 223.202 C 102.250 222.765,101.260 222.159,100.600 221.855 C 98.968 221.104,92.366 214.491,90.662 211.901 C 88.569 208.719,85.600 203.583,85.600 203.146 C 85.600 202.933,84.877 200.926,83.994 198.687 C 83.110 196.447,82.216 193.622,82.007 192.407 C 81.797 191.193,81.279 188.580,80.855 186.600 C 77.607 171.437,78.779 142.598,82.992 134.000 C 83.262 133.450,83.983 131.560,84.595 129.800 C 85.207 128.040,86.020 126.150,86.403 125.600 C 86.785 125.050,87.555 123.700,88.115 122.600 C 91.613 115.726,99.958 107.962,106.885 105.136 C 114.091 102.196,113.580 102.278,125.800 102.099 C 135.493 101.957,137.067 101.848,137.500 101.291 C 137.878 100.805,138.000 97.319,138.000 87.056 C 138.000 69.038,138.316 67.402,143.017 61.067 C 148.607 53.533,157.000 48.656,169.200 45.851 C 177.812 43.871,181.156 43.412,191.400 42.803 C 197.491 42.441,212.688 42.714,215.000 43.226 M191.800 47.027 C 191.360 47.092,188.750 47.347,186.000 47.593 C 178.965 48.225,173.370 49.102,170.800 49.978 C 169.590 50.391,167.880 50.851,167.000 51.001 C 158.910 52.383,150.311 58.615,146.894 65.572 L 145.800 67.800 145.686 82.768 C 145.596 94.623,145.679 97.803,146.086 98.062 C 146.369 98.241,158.683 98.391,173.451 98.394 C 197.184 98.399,200.362 98.472,200.815 99.019 C 201.465 99.801,201.502 105.058,200.863 105.697 C 200.520 106.040,190.008 106.129,159.701 106.045 L 119.000 105.933 115.416 106.817 C 106.111 109.112,99.106 114.591,94.064 123.519 C 92.709 125.918,91.600 128.082,91.600 128.327 C 91.600 128.572,91.351 129.364,91.047 130.086 C 85.723 142.739,84.901 170.824,89.374 187.270 C 93.985 204.223,102.279 214.037,114.200 216.647 C 118.040 217.487,136.927 217.411,137.640 216.552 C 138.062 216.044,138.234 212.345,138.436 199.452 C 138.702 182.479,139.027 178.797,140.439 176.769 C 140.834 176.202,141.419 174.977,141.739 174.047 C 142.905 170.662,150.569 162.000,152.397 162.000 C 152.839 162.000,153.200 161.838,153.200 161.641 C 153.200 161.295,156.596 159.999,161.200 158.589 C 164.012 157.728,180.952 157.048,193.200 157.305 C 219.155 157.850,236.402 156.672,239.231 154.160 C 239.579 153.852,240.209 153.600,240.633 153.600 C 241.680 153.600,248.075 148.991,248.713 147.776 C 248.995 147.239,249.392 146.800,249.595 146.800 C 250.226 146.800,253.261 141.311,254.530 137.875 L 255.740 134.600 255.970 119.800 C 256.096 111.660,256.110 97.243,256.000 87.762 L 255.800 70.524 254.294 67.562 C 248.000 55.187,233.829 48.845,208.800 47.202 C 203.445 46.851,193.678 46.750,191.800 47.027 M173.400 65.559 C 177.747 67.572,179.421 70.482,179.136 75.525 C 178.595 85.098,165.849 87.716,161.070 79.236 C 156.607 71.317,165.217 61.768,173.400 65.559 M168.080 76.080 C 167.118 77.042,167.485 79.484,168.634 79.773 C 170.898 80.341,172.276 78.610,171.184 76.569 C 170.615 75.508,168.919 75.241,168.080 76.080 M256.396 227.518 L 256.592 230.600 256.716 227.840 C 256.784 226.321,256.695 224.935,256.520 224.758 C 256.344 224.581,256.288 225.823,256.396 227.518 M222.271 246.347 C 222.144 246.978,222.196 248.013,222.386 248.647 C 222.678 249.621,222.737 249.443,222.766 247.500 C 222.803 244.981,222.626 244.569,222.271 246.347 M256.531 249.400 C 256.533 250.940,256.605 251.521,256.692 250.691 C 256.779 249.861,256.777 248.601,256.689 247.891 C 256.600 247.181,256.529 247.860,256.531 249.400 M230.880 248.880 C 229.609 250.151,230.573 252.800,232.306 252.800 C 234.511 252.800,235.450 251.162,234.386 249.174 C 233.911 248.287,231.662 248.098,230.880 248.880 M180.800 273.600 C 181.350 273.776,182.610 273.917,183.600 273.914 L 185.400 273.908 183.800 273.577 C 181.582 273.118,179.349 273.135,180.800 273.600 M222.000 273.600 C 222.000 273.820,222.439 274.000,222.976 274.000 C 223.513 274.000,224.064 273.820,224.200 273.600 C 224.344 273.367,223.937 273.200,223.224 273.200 C 222.551 273.200,222.000 273.380,222.000 273.600 M105.842 310.961 C 106.224 311.108,106.400 311.857,106.400 313.344 C 106.400 315.983,106.180 316.079,100.387 315.971 C 98.242 315.931,96.288 316.022,96.044 316.173 C 95.732 316.366,95.600 320.873,95.600 331.375 C 95.600 348.280,95.799 347.320,92.332 347.122 L 90.200 347.000 90.000 331.600 L 89.800 316.200 84.825 316.087 C 81.996 316.023,79.624 315.786,79.325 315.538 C 78.338 314.719,78.801 310.935,79.915 310.721 C 81.007 310.512,105.255 310.736,105.842 310.961 M122.700 311.020 C 123.077 311.137,123.200 313.042,123.200 318.764 C 123.200 328.281,123.427 328.552,126.954 323.258 C 127.928 321.796,129.056 320.180,129.462 319.668 C 129.868 319.155,130.740 318.058,131.400 317.231 C 132.060 316.404,133.320 314.707,134.200 313.460 C 135.925 311.015,136.348 310.795,139.586 310.660 C 143.547 310.495,143.481 310.864,138.457 317.003 C 138.096 317.445,136.309 319.813,134.486 322.266 C 132.664 324.718,130.909 326.944,130.586 327.211 C 129.329 328.255,129.728 329.137,133.388 333.396 C 140.321 341.463,144.005 346.068,143.797 346.405 C 143.663 346.622,142.213 346.800,140.576 346.800 C 137.288 346.800,137.367 346.845,134.600 343.396 C 133.720 342.299,132.761 341.149,132.469 340.841 C 132.177 340.533,130.227 338.138,128.135 335.518 C 126.043 332.899,124.122 330.826,123.866 330.911 C 123.539 331.020,123.368 333.311,123.291 338.615 C 123.170 346.948,123.226 346.784,120.533 346.794 C 117.348 346.806,117.600 348.333,117.600 328.986 C 117.600 308.824,117.438 309.394,122.700 311.020 M172.833 311.254 C 173.182 311.818,172.798 315.296,172.332 315.800 C 172.128 316.020,170.755 316.290,169.281 316.400 L 166.600 316.600 166.600 329.000 L 166.600 341.400 169.477 341.283 C 172.881 341.144,173.222 341.480,172.843 344.600 L 172.600 346.600 163.600 346.600 L 154.600 346.600 154.600 344.000 L 154.600 341.400 157.800 341.200 L 161.000 341.000 161.106 329.026 C 161.226 315.462,161.429 316.229,157.755 316.363 C 154.621 316.476,154.415 316.287,154.406 313.287 C 154.401 311.561,154.542 311.122,155.173 310.887 C 156.399 310.431,172.532 310.766,172.833 311.254 M211.000 328.800 L 211.000 346.600 208.934 346.720 C 207.603 346.797,206.710 346.655,206.423 346.320 C 205.973 345.795,202.402 340.683,198.463 334.924 C 197.287 333.206,195.089 330.019,193.577 327.842 C 192.065 325.665,190.756 323.685,190.669 323.442 C 190.068 321.776,189.785 325.169,189.683 335.233 L 189.565 346.800 187.232 346.800 C 184.021 346.800,184.177 347.816,184.400 328.400 L 184.600 311.000 186.413 310.882 C 188.590 310.740,188.655 310.801,192.881 317.000 C 194.531 319.420,197.256 323.380,198.936 325.800 C 200.616 328.220,202.668 331.231,203.495 332.491 C 205.755 335.932,205.789 335.795,205.906 322.695 C 206.025 309.385,205.745 310.397,209.200 310.794 L 211.000 311.000 211.000 328.800 M243.900 310.994 C 244.216 311.109,244.400 311.972,244.400 313.344 C 244.400 315.983,244.221 316.061,238.349 315.969 C 236.155 315.934,234.235 316.032,234.080 316.186 C 233.926 316.340,233.710 323.336,233.600 331.733 L 233.400 347.000 230.900 347.119 L 228.400 347.238 228.400 331.843 C 228.400 321.719,228.259 316.360,227.988 316.193 C 227.762 316.053,225.377 315.907,222.688 315.869 L 217.800 315.800 217.676 313.612 C 217.589 312.077,217.720 311.301,218.115 311.012 C 218.665 310.610,242.788 310.593,243.900 310.994 M305.994 311.202 C 316.232 313.680,316.755 329.813,306.700 332.956 C 305.319 333.388,307.629 337.101,312.270 341.910 C 316.213 345.995,316.203 346.800,312.205 346.800 C 309.022 346.800,308.882 346.728,306.894 344.066 C 306.292 343.260,305.468 342.241,305.063 341.800 C 299.308 335.549,296.357 331.506,296.479 330.039 L 296.600 328.600 300.400 328.400 C 306.254 328.092,308.400 326.423,308.400 322.178 C 308.400 317.752,306.337 316.389,299.584 316.352 C 297.139 316.339,295.017 316.449,294.869 316.597 C 294.721 316.745,294.510 323.556,294.400 331.733 L 294.200 346.600 291.700 346.719 L 289.200 346.838 289.200 328.886 C 289.200 319.012,289.275 310.858,289.367 310.767 C 289.724 310.409,304.291 310.790,305.994 311.202 M277.757 311.433 C 279.375 315.650,277.857 316.482,268.835 316.326 C 260.433 316.180,261.200 315.663,261.200 321.470 C 261.200 326.512,260.305 326.029,269.823 326.127 L 277.000 326.200 277.118 328.891 L 277.236 331.583 269.318 331.691 L 261.400 331.800 261.400 336.600 L 261.400 341.400 268.840 341.254 C 277.702 341.080,278.000 341.167,278.000 343.934 C 278.000 344.982,277.784 346.056,277.520 346.320 C 276.703 347.137,256.159 346.992,255.843 346.167 C 255.526 345.341,255.526 312.259,255.843 311.433 C 256.211 310.474,277.389 310.474,277.757 311.433 M145.200 313.583 C 145.200 313.998,144.581 315.117,143.825 316.069 C 143.069 317.021,141.958 318.610,141.355 319.600 C 140.752 320.590,140.044 321.580,139.782 321.800 C 139.520 322.020,138.348 323.460,137.178 325.000 C 136.008 326.540,134.904 327.860,134.725 327.933 C 134.546 328.007,134.400 328.313,134.400 328.613 C 134.400 328.914,134.150 329.304,133.845 329.480 C 133.539 329.656,133.224 330.121,133.145 330.514 C 133.019 331.133,132.828 331.069,131.700 330.036 C 130.155 328.620,130.136 328.483,131.304 327.196 C 131.801 326.648,132.835 325.390,133.601 324.400 C 134.367 323.410,135.130 322.540,135.297 322.467 C 135.464 322.393,135.600 322.087,135.600 321.787 C 135.600 321.486,135.842 321.096,136.137 320.920 C 136.432 320.744,137.013 320.060,137.428 319.400 C 137.842 318.740,138.277 318.110,138.393 318.000 C 138.509 317.890,139.133 317.080,139.779 316.200 C 142.635 312.310,145.200 311.071,145.200 313.583 M175.761 313.137 C 176.847 316.890,175.605 319.200,172.503 319.200 C 170.739 319.200,169.439 319.974,169.378 321.061 C 169.355 321.467,169.306 326.075,169.268 331.300 L 169.200 340.800 168.000 340.800 L 166.800 340.800 166.800 328.800 L 166.800 316.800 169.986 316.800 C 173.552 316.800,174.000 316.476,174.000 313.893 C 174.000 311.951,175.262 311.410,175.761 313.137 M246.764 312.556 C 247.513 313.459,247.643 315.923,247.020 317.414 L 246.441 318.800 242.100 318.800 C 236.275 318.800,236.801 317.276,236.794 334.180 C 236.791 342.111,236.625 348.857,236.426 349.172 C 235.703 350.314,231.515 350.235,230.172 349.055 L 229.000 348.025 231.251 348.013 C 234.579 347.994,234.413 348.803,234.456 332.348 C 234.477 324.347,234.636 317.530,234.808 317.200 C 235.060 316.717,235.968 316.611,239.460 316.657 C 244.128 316.719,245.194 316.344,245.205 314.638 C 245.220 312.404,245.892 311.506,246.764 312.556 M280.386 312.774 C 280.909 313.751,280.919 316.034,280.407 317.381 C 279.779 319.035,278.391 319.324,271.526 319.237 C 264.283 319.145,264.400 319.083,264.400 322.974 L 264.400 325.200 262.986 325.200 L 261.572 325.200 261.686 321.100 L 261.800 317.000 269.732 316.922 C 278.769 316.834,278.800 316.824,278.800 313.951 C 278.800 311.850,279.581 311.270,280.386 312.774 M108.929 313.926 C 110.777 317.089,108.904 318.728,103.465 318.709 C 97.871 318.690,98.260 317.816,98.229 330.487 C 98.215 336.269,98.357 342.080,98.546 343.400 C 99.304 348.706,96.710 351.473,92.832 349.494 C 91.205 348.664,91.340 348.000,93.134 348.000 C 96.192 348.000,96.000 348.773,96.002 336.457 C 96.003 330.376,96.117 323.420,96.256 321.000 L 96.509 316.600 100.835 316.725 C 105.537 316.860,106.797 316.514,106.805 315.086 C 106.823 312.293,107.697 311.816,108.929 313.926 M125.621 313.240 C 125.869 313.702,126.136 315.505,126.216 317.246 C 126.295 318.988,126.471 320.592,126.607 320.811 C 126.743 321.031,126.571 321.776,126.227 322.467 C 125.882 323.158,125.600 323.875,125.600 324.061 C 125.600 324.248,125.240 324.760,124.800 325.200 L 124.000 326.000 124.000 319.200 C 124.000 312.187,124.357 310.877,125.621 313.240 M213.326 313.583 C 214.300 315.231,214.427 348.144,213.464 349.108 C 212.461 350.110,209.544 350.207,208.395 349.276 C 207.210 348.315,207.392 348.046,209.450 347.721 C 211.677 347.369,211.587 348.129,211.594 329.500 C 211.600 311.458,211.674 310.785,213.326 313.583 M192.594 314.100 C 193.015 314.815,193.506 315.580,193.684 315.800 C 196.664 319.484,198.770 322.810,198.110 322.791 C 197.699 322.780,195.600 319.797,195.600 319.224 C 195.600 318.977,195.330 318.671,195.000 318.545 C 194.670 318.418,194.400 318.146,194.400 317.940 C 194.400 317.587,194.069 317.118,192.900 315.815 C 192.625 315.508,192.400 315.084,192.400 314.871 C 192.400 314.659,192.130 314.382,191.800 314.255 C 191.186 314.020,190.947 312.800,191.514 312.800 C 191.686 312.800,192.172 313.385,192.594 314.100 M315.586 318.108 C 318.586 324.367,317.108 330.896,311.899 334.400 C 309.723 335.864,309.795 337.452,312.143 339.801 C 312.525 340.183,312.746 340.587,312.634 340.699 C 312.522 340.811,312.019 340.410,311.515 339.809 C 311.012 339.207,309.648 337.713,308.484 336.488 C 306.196 334.080,306.088 333.442,307.906 333.079 C 309.386 332.783,312.361 329.902,313.359 327.799 C 313.776 326.920,314.271 325.887,314.459 325.505 C 314.939 324.527,314.890 319.200,314.400 319.200 C 314.180 319.200,314.000 318.585,314.000 317.833 C 314.000 317.082,313.788 316.396,313.529 316.310 C 313.058 316.153,313.402 315.193,313.924 315.208 C 314.076 315.212,314.824 316.517,315.586 318.108 M89.200 318.008 C 89.200 319.088,89.097 319.189,88.223 318.970 C 87.686 318.835,85.969 318.697,84.408 318.662 C 82.412 318.618,81.464 318.428,81.212 318.019 C 80.573 316.985,81.180 316.800,85.224 316.800 L 89.200 316.800 89.200 318.008 M160.732 317.929 C 160.941 319.408,160.537 320.082,159.709 319.633 C 159.319 319.422,158.518 319.147,157.928 319.024 C 156.150 318.651,155.231 317.489,156.438 317.140 C 158.503 316.542,160.589 316.925,160.732 317.929 M227.927 317.900 L 227.800 319.000 224.000 318.866 C 217.360 318.631,217.227 316.800,223.850 316.800 L 228.053 316.800 227.927 317.900 M305.453 317.633 C 308.356 319.427,305.707 320.635,301.657 319.363 C 301.359 319.269,300.414 319.381,299.557 319.612 L 298.000 320.031 297.958 322.315 C 297.896 325.661,298.026 326.939,298.487 327.500 C 298.799 327.879,298.597 328.014,297.649 328.060 C 296.962 328.093,296.183 328.138,295.918 328.160 C 295.546 328.191,295.246 318.320,295.577 316.900 C 295.720 316.282,304.297 316.918,305.453 317.633 M308.000 321.047 C 308.000 321.377,307.820 321.536,307.600 321.400 C 307.380 321.264,307.200 320.883,307.200 320.553 C 307.200 320.223,307.380 320.064,307.600 320.200 C 307.820 320.336,308.000 320.717,308.000 321.047 M199.600 324.624 C 199.600 324.941,199.420 325.200,199.200 325.200 C 198.980 325.200,198.800 324.829,198.800 324.376 C 198.800 323.923,198.980 323.664,199.200 323.800 C 199.420 323.936,199.600 324.307,199.600 324.624 M192.015 326.666 C 193.898 329.746,194.061 330.252,193.360 330.833 C 192.866 331.243,192.779 332.748,192.838 339.856 C 192.922 350.063,192.644 350.574,187.458 349.732 C 184.679 349.281,185.163 347.618,188.076 347.606 C 190.108 347.598,190.023 348.114,190.063 335.616 C 190.082 329.447,190.218 324.400,190.365 324.400 C 190.511 324.400,191.254 325.420,192.015 326.666 M280.246 330.473 C 280.337 332.256,279.520 334.353,278.690 334.467 C 278.420 334.504,275.269 334.549,271.686 334.567 C 264.176 334.605,264.415 334.482,264.406 338.300 L 264.400 340.800 263.000 340.800 L 261.600 340.800 261.600 336.408 L 261.600 332.017 269.500 331.908 L 277.400 331.800 277.512 329.800 C 277.685 326.710,277.860 326.478,279.095 327.714 C 279.865 328.483,280.183 329.245,280.246 330.473 M204.513 330.909 C 204.904 331.303,205.333 332.204,205.465 332.913 C 205.616 333.722,205.566 334.051,205.331 333.800 C 204.416 332.824,202.800 330.415,202.800 330.027 C 202.800 329.792,202.620 329.600,202.400 329.600 C 202.180 329.600,202.006 329.195,202.013 328.700 C 202.025 327.853,202.077 327.870,202.913 328.997 C 203.401 329.655,204.121 330.515,204.513 330.909 M126.388 334.308 C 127.677 336.253,127.966 337.202,127.036 336.430 C 126.376 335.882,125.882 336.427,126.226 337.323 C 126.352 337.651,126.259 338.040,126.021 338.187 C 125.782 338.335,125.701 338.640,125.841 338.866 C 126.214 339.471,126.020 347.496,125.605 348.587 C 125.142 349.806,121.143 350.207,119.856 349.165 C 118.740 348.260,119.367 347.600,121.344 347.600 C 123.980 347.600,124.000 347.537,124.000 339.071 C 124.000 330.670,123.991 330.688,126.388 334.308 M298.796 335.500 C 299.546 336.755,299.547 336.800,298.829 336.800 C 297.737 336.800,297.601 337.523,297.594 343.333 C 297.586 349.866,297.615 349.816,293.938 349.742 C 289.600 349.654,288.414 347.622,292.691 347.606 C 295.323 347.597,295.500 347.049,295.532 338.800 C 295.548 334.950,295.569 331.710,295.581 331.600 C 295.616 331.263,297.972 334.120,298.796 335.500 M143.323 342.765 C 143.720 343.444,143.931 344.000,143.792 344.000 C 143.356 344.000,141.200 341.684,141.200 341.217 C 141.200 340.451,142.542 341.430,143.323 342.765 M314.202 342.002 C 315.188 343.092,314.678 343.478,313.633 342.433 C 313.175 341.975,312.800 341.510,312.800 341.400 C 312.800 340.942,313.525 341.254,314.202 342.002 M175.920 346.685 C 175.834 348.051,175.632 349.302,175.470 349.464 C 174.821 350.112,157.057 349.595,156.295 348.905 C 155.064 347.791,156.213 347.613,164.638 347.606 C 173.341 347.599,174.471 347.314,173.826 345.281 C 173.690 344.855,173.768 344.009,173.999 343.402 L 174.419 342.299 175.247 343.250 C 175.941 344.045,176.050 344.605,175.920 346.685 M280.474 344.422 C 281.134 345.772,280.984 348.750,280.217 349.516 C 279.565 350.167,257.842 349.572,257.074 348.882 C 255.867 347.797,257.024 347.658,267.569 347.628 C 278.771 347.596,278.800 347.588,278.800 344.505 C 278.800 342.390,279.464 342.357,280.474 344.422 M146.394 348.445 C 146.404 350.198,139.952 350.473,138.326 348.788 C 137.501 347.933,138.644 347.600,142.401 347.600 C 143.990 347.600,144.861 347.408,145.216 346.981 C 145.855 346.211,146.385 346.870,146.394 348.445 M318.360 347.300 C 319.298 349.823,315.012 351.050,311.049 349.395 C 308.507 348.333,309.379 347.600,313.184 347.600 C 314.756 347.600,315.662 347.407,316.000 347.000 C 316.737 346.111,317.977 346.269,318.360 347.300 M115.844 364.248 C 117.479 365.024,119.200 366.964,119.200 368.031 C 119.200 369.149,117.451 369.043,116.688 367.878 C 115.208 365.619,111.374 365.636,109.586 367.908 C 106.651 371.640,110.973 377.186,115.138 375.032 C 117.116 374.009,116.785 373.200,114.387 373.200 C 112.227 373.200,111.475 372.515,112.404 371.395 C 112.952 370.735,118.176 370.543,119.129 371.148 C 120.593 372.076,118.378 375.949,115.756 377.044 C 110.160 379.382,105.215 374.936,106.587 368.800 C 107.494 364.741,112.105 362.474,115.844 364.248 M125.912 368.913 C 126.040 374.681,126.720 375.953,129.394 375.423 C 131.540 374.998,131.955 373.952,132.084 368.633 C 132.201 363.806,132.441 363.120,133.669 364.095 C 134.743 364.946,134.121 375.259,132.924 376.455 C 130.985 378.392,125.666 377.765,124.429 375.454 C 123.676 374.047,123.651 364.466,124.400 363.992 C 125.598 363.235,125.801 363.893,125.912 368.913 M144.967 363.843 C 146.096 364.276,145.722 365.596,144.395 365.861 C 142.886 366.163,142.733 366.743,142.883 371.600 L 143.000 375.400 144.300 375.525 C 145.271 375.619,145.600 375.845,145.600 376.418 C 145.600 378.032,138.700 378.107,138.472 376.496 C 138.368 375.763,138.579 375.544,139.584 375.343 L 140.825 375.095 140.713 370.647 C 140.604 366.343,140.570 366.196,139.676 366.069 C 138.663 365.925,138.185 365.136,138.545 364.200 C 138.783 363.579,143.583 363.312,144.967 363.843 M167.367 363.843 C 169.509 364.665,167.758 365.910,164.200 366.095 L 162.200 366.200 162.200 368.000 L 162.200 369.800 164.707 370.000 C 166.086 370.110,167.211 370.335,167.207 370.500 C 167.203 370.665,167.200 371.061,167.200 371.381 C 167.200 371.814,166.564 371.992,164.700 372.081 L 162.200 372.200 162.081 374.679 C 161.963 377.164,161.212 378.149,160.004 377.402 C 159.399 377.029,159.470 364.690,160.080 364.080 C 160.580 363.580,166.204 363.397,167.367 363.843 M181.338 364.296 C 188.181 368.068,186.453 377.108,178.809 377.527 C 174.495 377.764,171.582 374.935,171.614 370.540 C 171.651 365.529,177.160 361.992,181.338 364.296 M196.526 364.050 C 199.608 365.637,200.301 369.237,197.974 371.565 C 196.631 372.908,196.638 372.945,198.689 375.500 C 199.439 376.435,199.907 377.202,199.727 377.205 C 199.547 377.208,199.022 377.312,198.560 377.437 C 197.637 377.684,197.509 377.580,194.647 374.247 C 192.384 371.611,192.267 371.641,192.000 374.933 C 191.823 377.115,191.696 377.415,190.900 377.528 C 190.014 377.654,189.999 377.586,189.966 373.128 C 189.922 367.318,190.018 364.295,190.257 363.908 C 190.551 363.431,195.545 363.545,196.526 364.050 M220.573 364.268 C 225.142 366.446,223.449 372.978,218.238 373.281 L 216.200 373.400 216.078 375.298 C 215.955 377.217,214.847 378.170,213.620 377.413 C 212.900 376.967,213.254 364.463,214.000 363.991 C 214.984 363.370,219.048 363.540,220.573 364.268 M229.907 366.400 C 232.012 369.605,232.050 369.617,233.123 367.469 C 234.362 364.988,235.825 363.519,236.906 363.673 C 238.159 363.851,237.939 364.540,235.398 368.402 C 233.277 371.627,233.200 371.839,233.200 374.464 C 233.200 377.016,233.139 377.200,232.223 377.430 C 230.682 377.817,230.400 377.343,230.400 374.372 C 230.400 371.696,230.317 371.457,228.176 367.996 C 226.953 366.019,226.070 364.210,226.214 363.978 C 226.844 362.959,228.255 363.884,229.907 366.400 M250.567 363.843 C 252.248 364.488,250.996 366.000,248.781 366.000 C 247.027 366.000,246.730 366.999,246.840 372.527 L 246.938 377.400 245.769 377.400 L 244.600 377.400 244.600 372.123 C 244.600 366.392,244.504 366.122,242.403 365.929 C 240.910 365.791,240.226 364.610,241.261 363.954 C 241.874 363.565,249.603 363.473,250.567 363.843 M257.123 366.218 C 257.269 369.038,257.660 369.600,259.475 369.600 C 261.871 369.600,262.400 369.057,262.400 366.600 C 262.400 364.865,262.555 364.345,263.171 364.016 C 265.017 363.028,265.200 363.625,265.200 370.635 L 265.200 377.185 264.223 377.430 C 262.705 377.811,262.324 377.309,262.416 375.055 C 262.544 371.902,262.611 371.999,260.300 372.006 C 257.492 372.014,257.265 372.229,257.123 375.010 C 257.007 377.260,256.941 377.400,256.000 377.400 L 255.000 377.400 255.000 371.029 C 255.000 366.176,255.130 364.527,255.546 364.111 C 256.509 363.149,256.997 363.801,257.123 366.218 M279.541 364.570 C 285.843 367.764,284.056 377.078,277.056 377.524 C 271.868 377.854,268.320 373.667,269.733 368.881 C 271.079 364.321,275.347 362.445,279.541 364.570 M289.415 363.906 C 289.644 364.068,290.619 365.370,291.582 366.800 C 295.511 372.632,295.600 372.650,295.600 367.619 C 295.600 363.909,295.842 363.424,297.480 363.853 C 298.243 364.052,298.689 377.200,297.933 377.200 C 297.786 377.200,297.399 377.302,297.074 377.427 C 296.516 377.641,294.400 375.798,294.400 375.098 C 294.400 374.643,290.821 369.800,290.485 369.800 C 290.328 369.800,290.110 371.510,290.000 373.600 C 289.804 377.333,289.782 377.400,288.800 377.400 L 287.800 377.400 287.690 370.830 C 287.606 365.842,287.702 364.182,288.090 363.936 C 288.718 363.538,288.889 363.534,289.415 363.906 M240.200 366.014 C 240.921 367.106,241.148 367.201,242.500 366.978 C 243.903 366.746,244.000 366.795,244.000 367.741 C 244.000 369.128,243.388 369.388,242.415 368.415 C 241.027 367.027,239.436 367.818,238.425 370.400 C 238.123 371.170,237.666 371.980,237.408 372.200 C 236.705 372.801,236.000 375.125,236.000 376.841 C 236.000 380.035,234.514 381.248,232.510 379.691 C 231.571 378.961,231.691 378.485,233.000 377.752 C 233.679 377.373,233.800 376.887,233.803 374.552 C 233.807 371.713,234.826 369.504,237.547 366.439 C 238.016 365.910,238.400 365.325,238.400 365.139 C 238.400 364.371,239.454 364.883,240.200 366.014 M148.101 366.614 C 148.232 367.300,147.959 368.132,147.281 369.120 C 146.628 370.072,146.201 371.336,146.086 372.661 C 145.920 374.577,145.825 374.735,144.751 374.892 C 143.180 375.123,143.200 375.178,143.200 370.733 L 143.200 366.800 144.237 366.800 C 144.807 366.800,145.728 366.442,146.284 366.005 C 147.461 365.080,147.831 365.204,148.101 366.614 M170.554 366.186 C 171.452 367.557,171.363 368.197,170.200 368.727 C 168.999 369.275,168.920 370.336,169.981 371.686 L 170.763 372.679 169.462 373.940 C 168.686 374.692,167.746 375.200,167.130 375.200 C 165.885 375.200,165.492 375.669,164.848 377.921 C 164.271 379.936,163.024 380.686,161.900 379.694 C 161.041 378.936,160.999 378.163,161.800 377.855 C 162.249 377.683,162.400 376.966,162.400 375.013 L 162.400 372.400 164.992 372.400 C 167.401 372.400,167.602 372.332,167.828 371.432 C 168.355 369.331,167.998 369.001,165.192 368.990 C 162.671 368.980,162.597 368.949,162.473 367.890 L 162.347 366.800 165.170 366.800 C 167.560 366.800,168.070 366.677,168.493 366.000 C 169.157 364.936,169.771 364.991,170.554 366.186 M253.982 365.778 C 254.949 366.944,254.322 368.135,252.505 368.583 C 250.133 369.167,249.472 370.254,249.748 373.119 C 250.230 378.127,250.212 378.531,249.471 379.473 C 248.633 380.539,247.523 380.671,246.794 379.792 C 246.383 379.298,246.409 379.053,246.933 378.474 C 247.446 377.907,247.599 376.637,247.688 372.189 L 247.800 366.615 249.416 366.732 C 250.639 366.821,251.213 366.649,251.778 366.025 C 252.656 365.054,253.320 364.980,253.982 365.778 M267.989 368.964 C 268.261 370.524,268.547 372.019,268.624 372.287 C 268.702 372.555,268.593 372.881,268.383 373.011 C 268.172 373.141,268.000 374.232,268.000 375.436 C 268.000 379.280,266.935 380.920,265.074 379.940 C 263.538 379.132,263.116 378.000,264.351 378.000 C 265.797 378.000,266.029 377.121,265.787 372.567 C 265.380 364.896,266.860 362.474,267.989 368.964 M300.555 366.313 C 300.950 367.076,301.173 369.157,301.265 372.946 L 301.400 378.467 300.278 379.434 C 298.850 380.663,298.459 380.647,297.003 379.300 L 295.815 378.200 297.208 378.000 L 298.600 377.800 298.697 372.400 C 298.830 365.051,299.228 363.747,300.555 366.313 M128.235 365.906 C 129.183 366.547,129.308 374.800,128.370 374.800 C 127.213 374.800,126.736 373.400,126.951 370.637 C 127.073 369.077,127.178 367.305,127.186 366.700 C 127.200 365.579,127.460 365.382,128.235 365.906 M137.199 366.270 C 137.310 366.383,137.348 368.844,137.284 371.738 L 137.167 377.000 135.484 378.694 C 133.403 380.788,130.914 381.334,128.470 380.232 C 125.542 378.911,125.622 377.268,128.560 378.385 C 129.208 378.631,129.657 378.631,129.809 378.385 C 129.940 378.173,130.484 378.000,131.017 378.000 C 131.551 378.000,132.575 377.475,133.294 376.834 L 134.600 375.668 134.733 370.599 L 134.867 365.530 135.933 365.798 C 136.519 365.945,137.089 366.157,137.199 366.270 M259.777 366.489 C 260.622 367.694,260.560 368.295,259.560 368.613 C 258.392 368.983,257.869 368.306,258.191 366.840 C 258.514 365.372,258.930 365.280,259.777 366.489 M176.534 366.514 C 173.126 368.425,172.996 372.691,176.278 374.855 C 179.226 376.799,183.200 374.140,183.200 370.225 C 183.200 367.464,179.004 365.129,176.534 366.514 M192.180 367.365 C 191.628 370.311,194.598 371.813,196.600 369.600 C 197.469 368.639,197.128 368.567,195.809 369.431 C 194.192 370.490,193.000 370.053,193.000 368.400 C 193.000 366.753,195.589 366.350,196.670 367.828 C 197.141 368.472,197.200 368.479,197.200 367.887 C 197.200 365.832,192.558 365.350,192.180 367.365 M202.236 369.465 C 202.519 370.956,202.176 372.234,201.138 373.563 C 200.706 374.116,200.486 374.839,200.620 375.263 C 200.972 376.373,200.122 376.152,198.787 374.786 C 197.337 373.304,197.321 373.002,198.629 371.876 C 199.470 371.153,199.701 370.522,199.891 368.426 L 200.124 365.860 201.060 367.030 C 201.575 367.674,202.105 368.769,202.236 369.465 M216.426 366.569 C 215.349 367.866,216.070 370.987,217.478 371.124 C 220.409 371.407,222.109 368.150,219.814 366.646 C 218.596 365.848,217.053 365.813,216.426 366.569 M224.803 367.066 C 227.266 369.260,225.560 375.600,222.508 375.600 C 221.347 375.600,219.200 376.775,219.200 377.410 C 219.200 379.569,217.366 380.863,215.780 379.824 C 214.521 378.999,214.529 378.155,215.800 377.836 C 216.699 377.610,216.800 377.384,216.800 375.592 L 216.800 373.600 218.904 373.600 C 221.213 373.600,223.200 372.309,223.200 370.807 C 223.200 370.389,223.380 369.936,223.600 369.800 C 224.159 369.455,224.101 367.061,223.520 366.480 C 222.580 365.540,223.628 366.019,224.803 367.066 M232.210 367.984 C 231.873 368.529,230.833 367.359,230.813 366.411 C 230.803 365.978,231.024 366.046,231.649 366.671 C 232.115 367.137,232.368 367.728,232.210 367.984 M274.126 366.780 C 272.453 367.800,272.000 368.728,272.000 371.132 C 272.000 375.745,277.787 377.177,280.164 373.153 C 282.662 368.925,278.248 364.266,274.126 366.780 M293.929 367.124 C 295.083 368.081,295.242 368.433,295.129 369.783 L 295.000 371.338 294.072 369.469 C 293.562 368.441,292.977 367.600,292.772 367.600 C 292.567 367.600,292.400 367.345,292.400 367.033 C 292.400 366.722,292.175 366.376,291.900 366.265 C 291.560 366.128,291.593 366.056,292.000 366.042 C 292.330 366.031,293.198 366.518,293.929 367.124 M114.521 367.060 C 116.693 367.419,116.491 368.827,114.200 369.292 C 112.299 369.678,111.600 370.481,111.600 372.276 L 111.600 373.600 113.900 373.625 C 115.860 373.647,116.052 373.711,115.200 374.057 C 112.312 375.230,109.235 373.703,109.213 371.086 C 109.186 367.932,111.084 366.492,114.521 367.060 M181.409 367.853 C 182.343 369.087,182.091 369.400,180.165 369.400 C 177.332 369.400,175.680 372.933,177.762 374.538 C 178.013 374.731,177.859 374.755,177.400 374.592 C 176.960 374.437,176.318 374.227,175.973 374.127 C 173.777 373.489,174.225 368.172,176.558 367.169 C 177.889 366.598,180.765 367.003,181.409 367.853 M219.500 367.052 C 221.334 367.544,219.797 370.800,217.730 370.800 C 216.881 370.800,216.800 370.627,216.800 368.800 C 216.800 366.653,217.155 366.424,219.500 367.052 M279.409 367.853 C 280.305 369.036,280.170 370.108,279.165 369.789 C 276.595 368.973,274.417 370.936,275.059 373.492 C 275.286 374.396,275.220 374.460,274.356 374.186 C 271.422 373.255,271.731 368.291,274.800 367.061 C 275.965 366.594,278.828 367.086,279.409 367.853 M285.000 368.359 C 289.887 374.449,282.374 383.360,275.189 379.995 C 272.053 378.526,272.281 377.448,275.531 378.380 C 276.840 378.756,277.285 378.643,280.711 377.071 C 283.002 376.020,285.570 367.600,283.600 367.600 C 283.380 367.600,283.200 367.409,283.200 367.176 C 283.200 366.603,284.026 367.145,285.000 368.359 M120.800 367.837 C 120.800 368.187,121.143 368.909,121.561 369.442 C 121.993 369.991,122.233 370.753,122.115 371.205 C 121.970 371.756,122.105 372.000,122.553 372.000 C 123.263 372.000,123.454 373.396,122.800 373.800 C 122.580 373.936,122.400 374.369,122.400 374.762 C 122.400 377.475,118.099 380.820,114.651 380.789 C 113.260 380.776,109.944 379.233,109.694 378.482 C 109.479 377.838,111.684 377.844,112.330 378.490 C 112.693 378.853,113.002 378.866,113.523 378.541 C 113.910 378.299,114.816 377.972,115.537 377.814 C 117.030 377.486,119.600 375.121,119.600 374.076 C 119.600 373.692,119.888 372.967,120.240 372.465 C 120.990 371.393,120.239 370.172,118.658 369.894 C 117.862 369.754,117.879 369.710,118.900 369.281 C 119.586 368.994,120.000 368.515,120.000 368.010 C 120.000 367.564,120.180 367.200,120.400 367.200 C 120.620 367.200,120.800 367.487,120.800 367.837 M140.372 368.300 C 140.347 369.275,140.305 369.309,140.000 368.600 C 139.531 367.507,139.531 367.200,140.000 367.200 C 140.220 367.200,140.387 367.695,140.372 368.300 M187.354 368.960 C 187.709 369.709,188.001 370.654,188.002 371.060 C 188.004 371.467,188.267 372.303,188.588 372.918 C 189.076 373.854,189.082 374.070,188.625 374.246 C 188.324 374.361,187.961 375.082,187.817 375.849 C 187.673 376.615,187.282 377.347,186.947 377.476 C 186.613 377.604,186.177 378.135,185.979 378.655 C 185.775 379.191,185.291 379.600,184.859 379.600 C 184.440 379.600,183.876 379.867,183.605 380.194 C 182.674 381.315,177.960 380.734,175.941 379.249 L 174.242 378.000 175.441 378.000 C 176.101 378.000,176.835 378.195,177.074 378.434 C 178.085 379.445,184.800 376.553,184.800 375.105 C 184.800 374.906,185.070 374.473,185.400 374.143 C 185.826 373.717,186.000 372.679,186.000 370.571 C 186.000 367.315,186.367 366.879,187.354 368.960 M292.531 373.054 C 293.339 374.183,294.000 375.488,294.000 375.954 C 294.000 376.419,294.211 376.800,294.470 376.800 C 294.750 376.800,294.666 377.082,294.261 377.500 C 293.888 377.885,293.213 378.695,292.762 379.300 C 291.759 380.646,290.283 380.739,289.423 379.511 C 288.613 378.355,288.637 378.136,289.600 377.884 C 290.328 377.694,290.400 377.338,290.400 373.957 C 290.400 371.913,290.549 370.411,290.731 370.620 C 290.912 370.829,291.722 371.924,292.531 373.054 M262.000 374.000 C 262.000 375.138,261.831 375.600,261.414 375.600 C 260.693 375.600,259.926 376.942,260.216 377.698 C 260.500 378.437,258.926 380.400,258.051 380.400 C 256.468 380.400,255.766 378.255,257.200 377.800 C 257.878 377.585,258.000 377.195,258.000 375.240 C 258.000 372.476,258.061 372.400,260.267 372.400 L 262.000 372.400 262.000 374.000 M196.018 377.100 C 196.429 378.121,199.812 378.428,200.713 377.527 C 201.290 376.950,201.458 377.095,201.803 378.468 C 202.256 380.275,200.810 380.698,198.531 379.424 C 196.280 378.166,196.037 378.164,194.858 379.407 C 193.828 380.492,192.941 380.640,191.975 379.887 C 190.830 378.995,190.766 378.095,191.827 377.829 C 192.362 377.695,192.825 377.273,192.857 376.892 C 192.940 375.877,193.054 374.683,193.133 374.000 C 193.214 373.292,195.453 375.697,196.018 377.100 M148.000 378.631 C 148.000 380.329,142.967 381.317,140.900 380.024 C 138.598 378.585,139.158 378.000,142.837 378.000 C 145.760 378.000,146.096 377.921,146.288 377.184 C 146.579 376.072,148.000 377.273,148.000 378.631 " stroke="none" fill="#3673a6" fill-rule="evenodd"></path><path id="path1" d="M265.101 104.726 C 263.586 104.901,263.624 104.478,263.489 122.800 C 263.411 133.374,263.215 139.417,262.926 140.200 C 262.682 140.860,262.167 142.480,261.781 143.800 C 260.968 146.580,257.920 152.572,256.662 153.863 C 256.188 154.350,255.170 155.398,254.400 156.192 C 251.459 159.225,246.988 161.642,240.600 163.653 C 239.396 164.031,230.635 164.220,205.200 164.415 C 170.399 164.683,170.439 164.681,165.213 166.417 C 155.382 169.683,149.208 176.226,146.547 186.200 C 145.422 190.415,145.393 247.746,146.514 251.200 C 147.525 254.317,148.465 256.400,148.861 256.400 C 149.047 256.400,149.200 256.649,149.200 256.954 C 149.200 257.832,154.371 263.135,156.929 264.880 C 158.922 266.240,160.538 267.070,165.400 269.228 C 166.841 269.868,168.578 270.489,169.800 270.800 C 170.460 270.969,172.350 271.472,174.000 271.920 C 175.650 272.367,178.080 272.857,179.400 273.008 C 180.720 273.160,183.510 273.544,185.600 273.862 C 197.039 275.604,221.787 274.483,231.400 271.787 C 232.720 271.417,234.340 270.976,235.000 270.807 C 243.564 268.617,251.812 262.731,254.785 256.690 L 256.011 254.200 255.905 239.000 L 255.800 223.800 228.400 223.600 L 201.000 223.400 200.883 219.834 C 200.799 217.251,200.909 216.177,201.283 215.940 C 201.568 215.760,220.123 215.609,242.517 215.606 C 287.169 215.599,286.365 215.639,291.790 213.205 C 300.568 209.266,306.264 202.837,310.619 191.953 C 312.087 188.284,312.567 186.584,313.789 180.728 C 314.639 176.650,314.666 145.889,313.823 140.800 C 310.716 122.044,301.661 109.029,289.247 105.478 C 287.885 105.088,267.476 104.453,265.101 104.726 M236.871 238.375 C 246.245 242.569,242.897 257.154,232.551 257.191 C 220.645 257.234,218.576 241.305,230.000 237.551 C 231.524 237.050,234.784 237.441,236.871 238.375 " stroke="none" fill="#fad244" fill-rule="evenodd"></path><path id="path2" d="M79.915 310.721 C 78.801 310.935,78.338 314.719,79.325 315.538 C 79.624 315.786,81.996 316.023,84.825 316.087 L 89.800 316.200 90.000 331.600 L 90.200 347.000 92.332 347.122 C 95.799 347.320,95.600 348.280,95.600 331.375 C 95.600 320.873,95.732 316.366,96.044 316.173 C 96.288 316.022,98.242 315.931,100.387 315.971 C 106.180 316.079,106.400 315.983,106.400 313.344 C 106.400 311.857,106.224 311.108,105.842 310.961 C 105.255 310.736,81.007 310.512,79.915 310.721 M118.192 311.066 C 117.688 311.569,117.600 314.225,117.600 328.986 C 117.600 348.333,117.348 346.806,120.533 346.794 C 123.226 346.784,123.170 346.948,123.291 338.615 C 123.368 333.311,123.539 331.020,123.866 330.911 C 124.122 330.826,126.043 332.899,128.135 335.518 C 130.227 338.138,132.177 340.533,132.469 340.841 C 132.761 341.149,133.720 342.299,134.600 343.396 C 137.367 346.845,137.288 346.800,140.576 346.800 C 142.213 346.800,143.663 346.622,143.797 346.405 C 144.005 346.068,140.321 341.463,133.388 333.396 C 129.728 329.137,129.329 328.255,130.586 327.211 C 130.909 326.944,132.664 324.718,134.486 322.266 C 136.309 319.813,138.096 317.445,138.457 317.003 C 143.481 310.864,143.547 310.495,139.586 310.660 C 136.348 310.795,135.925 311.015,134.200 313.460 C 133.320 314.707,132.060 316.404,131.400 317.231 C 130.740 318.058,129.868 319.155,129.462 319.668 C 129.056 320.180,127.928 321.796,126.954 323.258 C 123.427 328.552,123.200 328.281,123.200 318.764 C 123.200 313.042,123.077 311.137,122.700 311.020 C 121.013 310.499,118.735 310.522,118.192 311.066 M155.173 310.887 C 154.542 311.122,154.401 311.561,154.406 313.287 C 154.415 316.287,154.621 316.476,157.755 316.363 C 161.429 316.229,161.226 315.462,161.106 329.026 L 161.000 341.000 157.800 341.200 L 154.600 341.400 154.600 344.000 L 154.600 346.600 163.600 346.600 L 172.600 346.600 172.843 344.600 C 173.222 341.480,172.881 341.144,169.477 341.283 L 166.600 341.400 166.600 329.000 L 166.600 316.600 169.281 316.400 C 170.755 316.290,172.128 316.020,172.332 315.800 C 172.798 315.296,173.182 311.818,172.833 311.254 C 172.532 310.766,156.399 310.431,155.173 310.887 M206.706 310.722 C 206.069 310.845,206.003 311.826,205.906 322.695 C 205.789 335.795,205.755 335.932,203.495 332.491 C 202.668 331.231,200.616 328.220,198.936 325.800 C 197.256 323.380,194.531 319.420,192.881 317.000 C 188.655 310.801,188.590 310.740,186.413 310.882 L 184.600 311.000 184.400 328.400 C 184.177 347.816,184.021 346.800,187.232 346.800 L 189.565 346.800 189.683 335.233 C 189.785 325.169,190.068 321.776,190.669 323.442 C 190.756 323.685,192.065 325.665,193.577 327.842 C 195.089 330.019,197.287 333.206,198.463 334.924 C 202.402 340.683,205.973 345.795,206.423 346.320 C 206.710 346.655,207.603 346.797,208.934 346.720 L 211.000 346.600 211.000 328.800 L 211.000 311.000 209.200 310.794 C 208.210 310.680,207.088 310.648,206.706 310.722 M218.115 311.012 C 217.720 311.301,217.589 312.077,217.676 313.612 L 217.800 315.800 222.688 315.869 C 225.377 315.907,227.762 316.053,227.988 316.193 C 228.259 316.360,228.400 321.719,228.400 331.843 L 228.400 347.238 230.900 347.119 L 233.400 347.000 233.600 331.733 C 233.710 323.336,233.926 316.340,234.080 316.186 C 234.235 316.032,236.155 315.934,238.349 315.969 C 244.221 316.061,244.400 315.983,244.400 313.344 C 244.400 311.972,244.216 311.109,243.900 310.994 C 242.788 310.593,218.665 310.610,218.115 311.012 M289.367 310.767 C 289.275 310.858,289.200 319.012,289.200 328.886 L 289.200 346.838 291.700 346.719 L 294.200 346.600 294.400 331.733 C 294.510 323.556,294.721 316.745,294.869 316.597 C 295.017 316.449,297.139 316.339,299.584 316.352 C 306.337 316.389,308.400 317.752,308.400 322.178 C 308.400 326.423,306.254 328.092,300.400 328.400 L 296.600 328.600 296.479 330.039 C 296.357 331.506,299.308 335.549,305.063 341.800 C 305.468 342.241,306.292 343.260,306.894 344.066 C 308.882 346.728,309.022 346.800,312.205 346.800 C 316.203 346.800,316.213 345.995,312.270 341.910 C 307.629 337.101,305.319 333.388,306.700 332.956 C 316.755 329.813,316.232 313.680,305.994 311.202 C 304.291 310.790,289.724 310.409,289.367 310.767 M255.843 311.433 C 255.526 312.259,255.526 345.341,255.843 346.167 C 256.159 346.992,276.703 347.137,277.520 346.320 C 277.784 346.056,278.000 344.982,278.000 343.934 C 278.000 341.167,277.702 341.080,268.840 341.254 L 261.400 341.400 261.400 336.600 L 261.400 331.800 269.318 331.691 L 277.236 331.583 277.118 328.891 L 277.000 326.200 269.823 326.127 C 260.305 326.029,261.200 326.512,261.200 321.470 C 261.200 315.663,260.433 316.180,268.835 316.326 C 277.857 316.482,279.375 315.650,277.757 311.433 C 277.389 310.474,256.211 310.474,255.843 311.433 M110.160 364.362 C 103.693 367.299,105.726 377.600,112.773 377.600 C 116.780 377.600,121.595 372.711,119.129 371.148 C 118.176 370.543,112.952 370.735,112.404 371.395 C 111.475 372.515,112.227 373.200,114.387 373.200 C 116.785 373.200,117.116 374.009,115.138 375.032 C 110.973 377.186,106.651 371.640,109.586 367.908 C 111.374 365.636,115.208 365.619,116.688 367.878 C 117.451 369.043,119.200 369.149,119.200 368.031 C 119.200 364.886,113.817 362.702,110.160 364.362 M124.400 363.992 C 123.651 364.466,123.676 374.047,124.429 375.454 C 125.666 377.765,130.985 378.392,132.924 376.455 C 134.121 375.259,134.743 364.946,133.669 364.095 C 132.441 363.120,132.201 363.806,132.084 368.633 C 131.955 373.952,131.540 374.998,129.394 375.423 C 126.720 375.953,126.040 374.681,125.912 368.913 C 125.801 363.893,125.598 363.235,124.400 363.992 M138.545 364.200 C 138.185 365.136,138.663 365.925,139.676 366.069 C 140.570 366.196,140.604 366.343,140.713 370.647 L 140.825 375.095 139.584 375.343 C 138.579 375.544,138.368 375.763,138.472 376.496 C 138.700 378.107,145.600 378.032,145.600 376.418 C 145.600 375.845,145.271 375.619,144.300 375.525 L 143.000 375.400 142.883 371.600 C 142.733 366.743,142.886 366.163,144.395 365.861 C 145.722 365.596,146.096 364.276,144.967 363.843 C 143.583 363.312,138.783 363.579,138.545 364.200 M160.080 364.080 C 159.470 364.690,159.399 377.029,160.004 377.402 C 161.212 378.149,161.963 377.164,162.081 374.679 L 162.200 372.200 164.700 372.081 C 166.564 371.992,167.200 371.814,167.200 371.381 C 167.200 371.061,167.203 370.665,167.207 370.500 C 167.211 370.335,166.086 370.110,164.707 370.000 L 162.200 369.800 162.200 368.000 L 162.200 366.200 164.200 366.095 C 167.758 365.910,169.509 364.665,167.367 363.843 C 166.204 363.397,160.580 363.580,160.080 364.080 M175.414 364.337 C 171.999 366.246,170.624 370.422,172.268 373.886 C 175.299 380.275,185.544 377.962,185.591 370.878 C 185.625 365.771,179.681 361.950,175.414 364.337 M190.257 363.908 C 190.018 364.295,189.922 367.318,189.966 373.128 C 189.999 377.586,190.014 377.654,190.900 377.528 C 191.696 377.415,191.823 377.115,192.000 374.933 C 192.267 371.641,192.384 371.611,194.647 374.247 C 197.509 377.580,197.637 377.684,198.560 377.437 C 199.022 377.312,199.547 377.208,199.727 377.205 C 199.907 377.202,199.439 376.435,198.689 375.500 C 196.638 372.945,196.631 372.908,197.974 371.565 C 200.301 369.237,199.608 365.637,196.526 364.050 C 195.545 363.545,190.551 363.431,190.257 363.908 M214.000 363.991 C 213.254 364.463,212.900 376.967,213.620 377.413 C 214.847 378.170,215.955 377.217,216.078 375.298 L 216.200 373.400 218.238 373.281 C 223.449 372.978,225.142 366.446,220.573 364.268 C 219.048 363.540,214.984 363.370,214.000 363.991 M226.214 363.978 C 226.070 364.210,226.953 366.019,228.176 367.996 C 230.317 371.457,230.400 371.696,230.400 374.372 C 230.400 377.343,230.682 377.817,232.223 377.430 C 233.139 377.200,233.200 377.016,233.200 374.464 C 233.200 371.839,233.277 371.627,235.398 368.402 C 237.939 364.540,238.159 363.851,236.906 363.673 C 235.825 363.519,234.362 364.988,233.123 367.469 C 232.050 369.617,232.012 369.605,229.907 366.400 C 228.255 363.884,226.844 362.959,226.214 363.978 M241.261 363.954 C 240.226 364.610,240.910 365.791,242.403 365.929 C 244.504 366.122,244.600 366.392,244.600 372.123 L 244.600 377.400 245.769 377.400 L 246.938 377.400 246.840 372.527 C 246.730 366.999,247.027 366.000,248.781 366.000 C 250.996 366.000,252.248 364.488,250.567 363.843 C 249.603 363.473,241.874 363.565,241.261 363.954 M255.546 364.111 C 255.130 364.527,255.000 366.176,255.000 371.029 L 255.000 377.400 256.000 377.400 C 256.941 377.400,257.007 377.260,257.123 375.010 C 257.265 372.229,257.492 372.014,260.300 372.006 C 262.611 371.999,262.544 371.902,262.416 375.055 C 262.324 377.309,262.705 377.811,264.223 377.430 L 265.200 377.185 265.200 370.635 C 265.200 363.625,265.017 363.028,263.171 364.016 C 262.555 364.345,262.400 364.865,262.400 366.600 C 262.400 371.335,257.370 370.971,257.123 366.218 C 256.997 363.801,256.509 363.149,255.546 364.111 M273.412 364.275 C 269.333 366.482,268.184 372.110,271.154 375.336 C 276.729 381.390,286.303 374.884,282.528 367.607 C 280.764 364.207,276.451 362.630,273.412 364.275 M288.090 363.936 C 287.702 364.182,287.606 365.842,287.690 370.830 L 287.800 377.400 288.800 377.400 C 289.782 377.400,289.804 377.333,290.000 373.600 C 290.110 371.510,290.328 369.800,290.485 369.800 C 290.821 369.800,294.400 374.643,294.400 375.098 C 294.400 375.798,296.516 377.641,297.074 377.427 C 297.399 377.302,297.786 377.200,297.933 377.200 C 298.689 377.200,298.243 364.052,297.480 363.853 C 295.842 363.424,295.600 363.909,295.600 367.619 C 295.600 372.650,295.511 372.632,291.582 366.800 C 289.395 363.553,289.089 363.302,288.090 363.936 M181.647 367.553 C 184.087 369.993,183.608 373.255,180.589 374.762 C 174.912 377.598,170.990 369.622,176.534 366.514 C 178.276 365.537,179.977 365.883,181.647 367.553 M196.020 366.610 C 198.366 367.823,197.104 370.400,194.165 370.400 C 192.203 370.400,191.743 369.697,192.180 367.365 C 192.477 365.785,193.887 365.507,196.020 366.610 M219.814 366.646 C 222.109 368.150,220.409 371.407,217.478 371.124 C 216.254 371.005,216.195 370.918,216.077 369.069 C 215.889 366.121,217.459 365.103,219.814 366.646 M278.321 366.559 C 280.093 367.476,280.847 368.587,280.871 370.318 C 280.931 374.641,276.482 377.052,273.414 374.359 C 269.466 370.892,273.696 364.168,278.321 366.559 " stroke="none" fill="#e6eef2" fill-rule="evenodd"></path><path id="path3" d="M263.023 104.377 L 261.128 106.301 261.819 107.636 C 262.400 108.761,262.464 109.573,262.223 112.786 C 262.066 114.884,261.957 116.870,261.982 117.200 C 262.450 123.490,261.847 139.177,261.039 141.728 C 260.539 143.308,259.916 145.357,259.654 146.282 C 258.783 149.364,256.830 150.321,256.760 147.700 C 256.725 146.373,256.684 146.315,256.410 147.200 C 256.239 147.750,256.157 148.560,256.227 149.000 C 256.297 149.440,256.461 150.467,256.592 151.282 C 256.753 152.290,256.999 152.698,257.361 152.560 C 258.108 152.273,260.933 146.670,261.777 143.800 C 262.165 142.480,262.683 140.860,262.928 140.200 C 263.220 139.412,263.419 133.127,263.510 121.900 L 263.647 104.800 264.923 104.787 C 277.587 104.662,286.731 104.896,288.652 105.397 C 300.529 108.490,310.314 121.255,313.185 137.400 C 313.459 138.940,313.844 140.613,314.041 141.119 C 314.706 142.821,314.485 177.390,313.789 180.728 C 312.567 186.584,312.087 188.284,310.619 191.953 C 306.264 202.837,300.568 209.266,291.790 213.205 C 286.365 215.639,287.169 215.599,242.517 215.606 C 220.123 215.609,201.568 215.760,201.283 215.940 C 200.909 216.177,200.799 217.251,200.883 219.834 L 201.000 223.400 228.162 223.503 C 245.800 223.570,255.496 223.748,255.814 224.012 C 256.173 224.310,256.354 224.150,256.495 223.413 L 256.688 222.408 230.444 222.406 C 200.557 222.404,201.846 222.523,201.681 219.738 C 201.542 217.387,202.218 216.460,203.550 217.173 C 204.080 217.457,204.435 217.467,204.599 217.201 C 204.762 216.937,218.033 216.801,243.324 216.802 C 282.460 216.805,289.805 216.573,290.285 215.323 C 290.402 215.019,291.124 214.800,292.014 214.800 C 292.855 214.800,293.781 214.575,294.072 214.300 C 295.150 213.281,298.295 210.889,301.500 208.650 C 303.315 207.382,304.800 206.154,304.800 205.920 C 304.800 205.333,307.570 201.515,308.449 200.889 C 308.845 200.607,309.289 199.707,309.437 198.889 C 309.736 197.239,310.538 195.482,311.633 194.076 C 312.029 193.567,312.574 192.127,312.843 190.876 C 313.112 189.624,313.462 188.420,313.620 188.200 C 313.779 187.980,314.124 186.450,314.388 184.800 C 314.652 183.150,315.120 180.922,315.428 179.849 C 316.373 176.554,316.277 143.595,315.319 142.132 C 314.777 141.305,314.607 140.224,314.604 137.590 C 314.600 134.502,314.486 133.966,313.529 132.567 C 312.930 131.689,312.334 130.121,312.176 129.000 C 312.020 127.900,311.090 125.380,310.110 123.400 C 307.863 118.863,307.605 118.422,306.477 117.200 C 304.594 115.160,302.370 112.303,301.784 111.169 C 301.451 110.526,300.920 110.000,300.604 110.000 C 300.287 110.000,299.419 109.465,298.674 108.812 C 297.930 108.158,296.439 107.247,295.361 106.786 C 294.282 106.325,292.899 105.471,292.287 104.887 L 291.173 103.825 279.487 103.688 C 270.834 103.586,267.426 103.408,266.359 103.002 L 264.917 102.453 263.023 104.377 M306.178 113.235 C 306.031 113.474,306.110 113.870,306.355 114.115 C 306.682 114.442,306.800 114.326,306.800 113.680 C 306.800 112.714,306.592 112.565,306.178 113.235 M316.093 130.800 C 316.093 131.570,316.175 131.885,316.276 131.500 C 316.376 131.115,316.376 130.485,316.276 130.100 C 316.175 129.715,316.093 130.030,316.093 130.800 M317.052 142.100 C 316.683 143.479,316.755 144.800,317.200 144.800 C 317.420 144.800,317.600 143.990,317.600 143.000 C 317.600 141.018,317.421 140.724,317.052 142.100 M255.738 153.817 C 255.391 154.721,255.702 154.769,256.500 153.933 C 257.092 153.313,257.106 153.200,256.587 153.200 C 256.251 153.200,255.868 153.478,255.738 153.817 M251.900 155.646 C 251.295 156.097,250.800 156.722,250.800 157.033 C 250.800 157.921,249.297 159.200,248.254 159.200 C 247.734 159.200,246.846 159.563,246.281 160.008 C 245.623 160.525,244.220 160.945,242.370 161.177 C 239.790 161.501,239.084 161.836,238.702 162.913 C 238.641 163.084,223.564 163.240,205.196 163.258 C 172.451 163.290,167.690 163.455,166.400 164.598 C 166.070 164.891,164.732 165.408,163.426 165.746 C 162.121 166.085,160.910 166.617,160.736 166.929 C 160.407 167.517,158.978 168.166,157.127 168.568 C 156.536 168.697,155.943 169.150,155.808 169.576 C 155.661 170.039,155.126 170.401,154.481 170.475 C 153.723 170.563,153.363 170.861,153.275 171.475 C 153.198 172.021,152.821 172.398,152.275 172.475 C 151.669 172.562,151.363 172.923,151.278 173.651 C 151.211 174.229,150.716 175.115,150.178 175.620 C 149.640 176.126,149.200 176.772,149.200 177.056 C 149.200 177.340,148.664 178.183,148.008 178.930 C 147.258 179.784,146.647 181.088,146.361 182.444 C 146.111 183.630,145.765 184.780,145.592 185.000 C 144.418 186.495,144.308 189.458,144.339 218.851 C 144.367 245.412,144.442 248.896,145.022 250.451 C 145.381 251.413,145.929 253.100,146.240 254.200 C 146.551 255.300,146.985 256.260,147.203 256.333 C 147.421 256.407,147.600 256.909,147.600 257.449 C 147.600 259.823,149.705 262.427,152.100 263.016 C 152.705 263.165,153.200 263.533,153.200 263.833 C 153.200 264.134,153.735 264.656,154.389 264.994 C 155.043 265.332,156.238 266.057,157.045 266.605 C 157.852 267.152,158.905 267.600,159.386 267.600 C 159.867 267.600,160.667 268.033,161.164 268.562 C 161.661 269.091,162.688 269.640,163.446 269.782 C 164.204 269.925,165.474 270.482,166.268 271.020 C 167.068 271.563,168.292 272.000,169.013 272.000 C 169.801 272.000,170.405 272.237,170.545 272.600 C 170.715 273.045,171.425 273.201,173.287 273.203 C 177.344 273.209,179.965 273.625,179.735 274.226 C 179.598 274.581,180.389 275.012,182.209 275.574 C 185.071 276.458,187.600 276.656,187.600 275.997 C 187.600 275.729,191.480 275.672,199.100 275.827 C 206.553 275.979,212.539 275.895,216.110 275.590 C 220.101 275.248,221.765 275.239,222.147 275.556 C 222.436 275.796,222.805 275.860,222.966 275.697 C 223.126 275.533,223.829 275.189,224.529 274.930 L 225.800 274.461 224.180 274.430 C 223.289 274.414,222.388 274.228,222.177 274.017 C 221.934 273.774,219.178 273.860,214.597 274.256 C 204.673 275.113,183.055 274.503,179.400 273.264 C 178.740 273.040,177.210 272.649,176.000 272.396 C 172.759 271.717,167.882 270.283,165.800 269.397 C 158.123 266.130,154.508 263.750,151.286 259.842 C 150.542 258.939,149.632 257.840,149.266 257.400 C 148.482 256.461,147.509 254.269,146.514 251.200 C 145.405 247.783,145.421 190.448,146.532 186.200 C 149.020 176.686,155.261 169.837,164.255 166.747 C 170.947 164.448,171.722 164.403,205.200 164.399 C 237.188 164.394,238.753 164.320,243.685 162.597 C 248.773 160.820,254.397 157.197,254.727 155.485 C 254.913 154.517,253.289 154.609,251.900 155.646 M154.000 162.973 C 154.000 163.847,154.178 164.000,155.200 164.000 C 156.417 164.000,156.624 163.758,156.094 162.954 C 155.390 161.885,154.000 161.898,154.000 162.973 M317.052 193.007 C 316.913 193.371,316.958 193.953,317.152 194.300 C 317.450 194.833,317.549 194.791,317.792 194.025 C 318.133 192.952,317.440 191.999,317.052 193.007 M256.086 239.436 L 256.000 254.272 254.767 256.740 C 251.461 263.356,243.828 268.449,232.800 271.396 C 231.370 271.778,229.678 272.250,229.040 272.445 C 228.402 272.640,227.322 272.803,226.640 272.806 C 225.958 272.809,225.130 273.004,224.800 273.239 C 223.839 273.922,231.263 273.328,232.637 272.611 C 233.284 272.274,234.830 272.004,236.120 272.002 C 238.316 272.000,240.800 271.176,240.800 270.450 C 240.800 270.270,241.520 269.797,242.400 269.400 C 243.280 269.003,244.000 268.555,244.000 268.403 C 244.000 268.052,245.855 267.200,246.619 267.200 C 247.536 267.200,247.302 267.903,246.000 269.063 C 244.662 270.256,244.485 270.800,245.437 270.800 C 246.950 270.800,250.395 266.726,250.398 264.933 C 250.399 264.383,250.886 263.765,251.725 263.246 C 252.540 262.742,253.413 261.654,253.991 260.420 C 254.508 259.316,255.262 258.307,255.665 258.179 C 256.486 257.919,256.508 257.721,256.455 251.000 C 256.422 246.985,256.462 246.734,256.910 248.136 C 257.179 248.981,257.535 249.536,257.700 249.369 C 258.072 248.994,258.009 230.248,257.629 228.600 C 257.262 227.004,256.718 231.519,256.802 235.464 C 256.834 236.969,256.808 238.380,256.744 238.600 C 256.680 238.820,256.525 235.760,256.400 231.800 C 256.217 226.014,256.155 227.514,256.086 239.436 M230.747 237.555 C 219.029 239.272,220.542 257.200,232.405 257.200 C 234.861 257.200,238.164 256.189,237.773 255.557 C 237.652 255.360,237.968 255.039,238.476 254.845 C 241.531 253.677,243.388 247.538,241.820 243.787 C 241.173 242.237,239.270 239.600,238.799 239.600 C 238.043 239.600,238.101 241.701,238.862 241.900 C 240.358 242.292,241.260 245.193,240.391 246.817 C 240.102 247.357,240.123 247.809,240.465 248.355 C 241.093 249.362,240.292 252.249,239.291 252.581 C 238.911 252.707,237.906 253.417,237.059 254.158 C 235.063 255.904,227.200 256.330,227.200 254.692 C 227.200 254.233,226.546 253.258,225.746 252.525 C 224.349 251.245,224.304 251.119,224.583 249.297 C 224.932 247.020,224.932 246.987,224.582 245.129 C 224.333 243.806,224.450 243.509,225.752 242.168 C 226.549 241.348,227.200 240.319,227.200 239.881 C 227.200 239.141,227.388 239.102,229.838 239.331 C 231.990 239.532,232.438 239.475,232.265 239.024 C 232.094 238.581,232.304 238.543,233.324 238.835 C 234.023 239.036,235.496 239.196,236.597 239.191 L 238.600 239.182 236.894 238.408 C 234.755 237.437,233.109 237.209,230.747 237.555 M228.138 243.588 C 228.268 244.241,228.751 245.151,229.210 245.610 L 230.045 246.445 229.791 244.922 C 229.414 242.660,229.288 242.400,228.563 242.400 C 228.041 242.400,227.951 242.653,228.138 243.588 M211.724 317.800 C 211.726 319.120,211.801 319.612,211.890 318.893 C 211.979 318.174,211.977 317.094,211.886 316.493 C 211.795 315.892,211.722 316.480,211.724 317.800 M166.800 318.044 L 166.800 319.289 167.563 318.346 C 168.377 317.341,168.312 316.800,167.376 316.800 C 166.998 316.800,166.800 317.228,166.800 318.044 M261.600 317.608 C 261.600 317.850,262.047 317.908,262.700 317.751 C 264.270 317.375,264.323 317.200,262.867 317.200 C 262.170 317.200,261.600 317.383,261.600 317.608 M314.000 327.027 C 314.000 327.371,313.525 328.276,312.944 329.038 C 311.638 330.751,311.942 331.259,313.360 329.730 C 314.248 328.772,314.847 326.400,314.200 326.400 C 314.090 326.400,314.000 326.682,314.000 327.027 M124.000 332.576 C 124.000 333.339,124.207 333.600,124.814 333.600 C 125.496 333.600,125.561 333.474,125.212 332.822 C 124.544 331.574,124.000 331.464,124.000 332.576 M274.800 332.400 C 275.582 332.906,276.688 332.906,277.000 332.400 C 277.148 332.160,276.639 332.002,275.724 332.006 C 274.593 332.011,274.355 332.112,274.800 332.400 M306.400 334.200 C 306.400 334.530,306.580 334.800,306.800 334.800 C 307.020 334.800,307.200 334.530,307.200 334.200 C 307.200 333.870,307.020 333.600,306.800 333.600 C 306.580 333.600,306.400 333.870,306.400 334.200 M211.714 341.400 C 211.717 342.500,211.795 342.903,211.887 342.295 C 211.979 341.686,211.977 340.786,211.882 340.295 C 211.787 339.803,211.711 340.300,211.714 341.400 M96.202 341.695 C 96.046 342.077,96.085 343.067,96.289 343.895 L 96.660 345.400 96.846 343.931 C 97.078 342.099,96.648 340.604,96.202 341.695 M247.853 366.681 C 247.487 367.046,247.541 370.000,247.914 370.000 C 248.216 370.000,249.600 367.910,249.600 367.452 C 249.600 367.068,248.119 366.414,247.853 366.681 M176.544 367.196 C 175.580 367.585,174.391 369.691,174.418 370.961 C 174.431 371.613,174.605 371.478,175.199 370.354 C 176.024 368.794,177.994 367.618,179.860 367.572 C 180.858 367.547,180.900 367.501,180.200 367.200 C 179.173 366.759,177.632 366.757,176.544 367.196 M193.115 368.400 C 192.949 369.529,193.018 369.600,194.275 369.600 C 196.148 369.600,197.256 368.851,196.758 367.921 C 196.039 366.578,193.330 366.934,193.115 368.400 M265.924 368.600 C 266.014 369.370,266.158 370.000,266.244 370.000 C 266.330 370.000,266.400 369.370,266.400 368.600 C 266.400 367.830,266.256 367.200,266.080 367.200 C 265.904 367.200,265.834 367.830,265.924 368.600 M276.033 367.347 C 276.505 367.763,279.200 367.993,279.200 367.618 C 279.200 367.388,278.450 367.200,277.533 367.200 C 276.617 367.200,275.942 367.266,276.033 367.347 M234.839 370.253 C 233.947 371.745,233.644 372.604,233.916 372.876 C 234.187 373.147,234.408 372.873,234.591 372.040 C 234.741 371.358,235.007 370.800,235.183 370.800 C 235.552 370.800,236.593 368.459,236.337 368.204 C 236.244 368.110,235.570 369.032,234.839 370.253 M272.700 368.631 C 272.535 368.797,272.420 369.848,272.444 370.967 L 272.488 373.000 272.847 371.200 C 273.237 369.244,273.175 368.152,272.700 368.631 M294.014 368.867 C 294.022 369.160,294.294 369.850,294.618 370.400 L 295.208 371.400 295.104 370.031 C 295.008 368.765,293.982 367.670,294.014 368.867 M109.200 370.704 C 109.200 372.375,109.755 373.200,110.880 373.200 C 111.413 373.200,111.600 372.889,111.600 372.000 C 111.600 371.340,111.454 370.800,111.275 370.800 C 111.097 370.800,110.557 370.433,110.075 369.984 L 109.200 369.169 109.200 370.704 M216.800 370.400 C 216.800 370.620,217.250 370.800,217.800 370.800 C 218.350 370.800,218.800 370.620,218.800 370.400 C 218.800 370.180,218.350 370.000,217.800 370.000 C 217.250 370.000,216.800 370.180,216.800 370.400 M258.406 373.500 C 258.410 373.932,258.525 374.031,258.706 373.760 C 258.868 373.518,259.270 373.217,259.600 373.092 C 260.001 372.939,259.901 372.853,259.300 372.832 C 258.695 372.810,258.402 373.030,258.406 373.500 M247.600 374.200 C 247.600 374.750,247.780 375.200,248.000 375.200 C 248.220 375.200,248.400 374.750,248.400 374.200 C 248.400 373.650,248.220 373.200,248.000 373.200 C 247.780 373.200,247.600 373.650,247.600 374.200 M282.998 374.407 C 282.849 374.876,282.820 375.353,282.933 375.467 C 283.384 375.918,284.840 375.105,284.718 374.470 C 284.524 373.464,283.311 373.420,282.998 374.407 M192.800 374.725 C 192.800 375.208,195.156 377.377,195.408 377.126 C 195.527 377.007,195.128 376.345,194.523 375.655 C 193.444 374.425,192.800 374.078,192.800 374.725 M130.400 378.400 C 130.400 378.901,130.824 378.901,131.600 378.400 C 132.085 378.086,132.028 378.011,131.300 378.006 C 130.805 378.003,130.400 378.180,130.400 378.400 M141.905 378.283 C 142.402 378.379,143.122 378.375,143.505 378.275 C 143.887 378.175,143.480 378.096,142.600 378.101 C 141.720 378.105,141.407 378.187,141.905 378.283 " stroke="none" fill="#3a4c48" fill-rule="evenodd"></path><path id="path4" d="M191.400 42.803 C 181.156 43.412,177.812 43.871,169.200 45.851 C 157.000 48.656,148.607 53.533,143.017 61.067 C 138.316 67.402,138.000 69.038,138.000 87.056 C 138.000 97.319,137.878 100.805,137.500 101.291 C 137.067 101.848,135.493 101.957,125.800 102.099 C 113.580 102.278,114.091 102.196,106.885 105.136 C 99.958 107.962,91.613 115.726,88.115 122.600 C 87.555 123.700,86.785 125.050,86.403 125.600 C 86.020 126.150,85.207 128.040,84.595 129.800 C 83.983 131.560,83.262 133.450,82.992 134.000 C 78.779 142.598,77.607 171.437,80.855 186.600 C 81.279 188.580,81.797 191.193,82.007 192.407 C 82.216 193.622,83.110 196.447,83.994 198.687 C 84.877 200.926,85.600 202.933,85.600 203.146 C 85.600 203.583,88.569 208.719,90.662 211.901 C 92.366 214.491,98.968 221.104,100.600 221.855 C 101.260 222.159,102.250 222.765,102.800 223.202 C 104.123 224.252,110.082 226.735,112.600 227.285 C 113.700 227.525,119.631 227.792,125.781 227.879 C 132.950 227.980,137.148 228.191,137.481 228.467 C 137.883 228.801,138.000 231.358,138.000 239.829 C 138.000 250.553,138.188 252.776,139.471 257.200 C 140.293 260.034,142.306 264.400,142.791 264.400 C 142.997 264.400,143.636 265.202,144.211 266.183 C 145.455 268.306,149.653 272.296,151.419 273.034 C 152.110 273.322,152.928 273.912,153.237 274.344 C 154.536 276.157,168.684 282.400,171.495 282.400 C 171.821 282.400,173.913 282.836,176.144 283.370 C 186.872 285.935,216.111 286.196,227.000 283.823 C 233.537 282.398,238.609 281.112,238.794 280.831 C 238.907 280.659,240.157 280.121,241.570 279.635 C 245.451 278.302,250.714 275.542,251.600 274.375 C 251.710 274.230,252.340 273.825,253.000 273.475 C 255.348 272.230,261.592 264.891,261.602 263.365 C 261.604 263.164,261.876 262.480,262.207 261.845 C 263.749 258.888,264.001 256.194,264.102 241.534 C 264.156 233.687,264.349 227.118,264.532 226.935 C 264.715 226.752,268.943 226.571,273.928 226.532 C 285.350 226.444,289.359 225.803,295.187 223.133 C 296.170 222.682,297.351 222.171,297.811 221.996 C 301.210 220.703,310.979 211.569,312.819 207.963 C 313.227 207.162,313.992 205.988,314.517 205.353 C 315.043 204.719,315.580 203.840,315.710 203.400 C 316.170 201.848,317.162 199.306,318.163 197.119 C 318.719 195.903,319.356 194.118,319.578 193.154 C 320.055 191.082,320.592 188.829,321.521 185.000 C 323.139 178.329,322.377 142.398,320.540 138.720 C 320.243 138.126,320.000 136.947,320.000 136.100 C 320.000 135.253,319.842 134.389,319.649 134.180 C 319.455 133.971,318.895 132.450,318.404 130.800 C 317.913 129.150,317.195 127.245,316.809 126.567 C 316.423 125.890,315.877 124.630,315.596 123.767 C 314.142 119.302,306.539 109.685,301.987 106.554 C 299.792 105.044,293.508 102.000,292.586 102.000 C 292.240 102.000,291.111 101.599,290.078 101.109 C 288.295 100.263,287.610 100.210,276.495 100.073 C 266.039 99.943,264.751 99.856,264.430 99.257 C 264.233 98.887,264.003 93.009,263.919 86.193 C 263.737 71.412,262.980 68.336,258.067 62.401 C 257.247 61.410,256.290 60.150,255.940 59.600 C 255.589 59.050,254.375 57.880,253.240 57.000 C 252.106 56.120,250.351 54.742,249.341 53.938 C 248.332 53.133,246.942 52.205,246.253 51.874 C 240.874 49.293,237.861 48.009,235.800 47.421 C 234.480 47.044,232.950 46.589,232.400 46.410 C 229.019 45.307,220.475 43.603,218.257 43.590 C 217.346 43.585,215.880 43.421,215.000 43.226 C 212.688 42.714,197.491 42.441,191.400 42.803 M208.800 47.202 C 233.829 48.845,248.000 55.187,254.294 67.562 L 255.800 70.524 256.000 87.762 C 256.110 97.243,256.096 111.660,255.970 119.800 L 255.740 134.600 254.530 137.875 C 253.261 141.311,250.226 146.800,249.595 146.800 C 249.392 146.800,248.995 147.239,248.713 147.776 C 248.075 148.991,241.680 153.600,240.633 153.600 C 240.209 153.600,239.579 153.852,239.231 154.160 C 236.402 156.672,219.155 157.850,193.200 157.305 C 180.952 157.048,164.012 157.728,161.200 158.589 C 156.596 159.999,153.200 161.295,153.200 161.641 C 153.200 161.838,152.839 162.000,152.397 162.000 C 150.569 162.000,142.905 170.662,141.739 174.047 C 141.419 174.977,140.834 176.202,140.439 176.769 C 139.027 178.797,138.702 182.479,138.436 199.452 C 138.234 212.345,138.062 216.044,137.640 216.552 C 136.927 217.411,118.040 217.487,114.200 216.647 C 102.279 214.037,93.985 204.223,89.374 187.270 C 84.901 170.824,85.723 142.739,91.047 130.086 C 91.351 129.364,91.600 128.572,91.600 128.327 C 91.600 128.082,92.709 125.918,94.064 123.519 C 99.106 114.591,106.111 109.112,115.416 106.817 L 119.000 105.933 159.701 106.045 C 190.008 106.129,200.520 106.040,200.863 105.697 C 201.502 105.058,201.465 99.801,200.815 99.019 C 200.362 98.472,197.184 98.399,173.451 98.394 C 158.683 98.391,146.369 98.241,146.086 98.062 C 145.679 97.803,145.596 94.623,145.686 82.768 L 145.800 67.800 146.894 65.572 C 150.311 58.615,158.910 52.383,167.000 51.001 C 167.880 50.851,169.590 50.391,170.800 49.978 C 173.370 49.102,178.965 48.225,186.000 47.593 C 188.750 47.347,191.360 47.092,191.800 47.027 C 193.678 46.750,203.445 46.851,208.800 47.202 M166.272 65.417 C 156.113 69.144,158.622 84.249,169.388 84.179 C 176.470 84.133,180.428 78.871,179.021 71.373 C 178.190 66.942,171.119 63.639,166.272 65.417 M171.184 76.569 C 172.276 78.610,170.898 80.341,168.634 79.773 C 167.485 79.484,167.118 77.042,168.080 76.080 C 168.919 75.241,170.615 75.508,171.184 76.569 M279.487 103.688 L 291.173 103.825 292.287 104.887 C 292.899 105.471,294.282 106.325,295.361 106.786 C 296.439 107.247,297.930 108.158,298.674 108.812 C 299.419 109.465,300.287 110.000,300.604 110.000 C 300.920 110.000,301.451 110.526,301.784 111.169 C 302.370 112.303,304.594 115.160,306.477 117.200 C 307.605 118.422,307.863 118.863,310.110 123.400 C 311.090 125.380,312.020 127.900,312.176 129.000 C 312.334 130.121,312.930 131.689,313.529 132.567 C 314.486 133.966,314.600 134.502,314.604 137.590 C 314.607 140.224,314.777 141.305,315.319 142.132 C 316.277 143.595,316.373 176.554,315.428 179.849 C 315.120 180.922,314.652 183.150,314.388 184.800 C 314.124 186.450,313.779 187.980,313.620 188.200 C 313.462 188.420,313.112 189.624,312.843 190.876 C 312.574 192.127,312.029 193.567,311.633 194.076 C 310.538 195.482,309.736 197.239,309.437 198.889 C 309.289 199.707,308.845 200.607,308.449 200.889 C 307.570 201.515,304.800 205.333,304.800 205.920 C 304.800 206.154,303.315 207.382,301.500 208.650 C 298.295 210.889,295.150 213.281,294.072 214.300 C 293.781 214.575,292.855 214.800,292.014 214.800 C 291.124 214.800,290.402 215.019,290.285 215.323 C 289.805 216.573,282.460 216.805,243.324 216.802 C 218.033 216.801,204.762 216.937,204.599 217.201 C 204.435 217.467,204.080 217.457,203.550 217.173 C 202.218 216.460,201.542 217.387,201.681 219.738 C 201.846 222.523,200.556 222.404,230.457 222.406 L 256.715 222.408 256.543 230.685 C 256.449 235.237,256.497 238.837,256.650 238.684 C 256.803 238.530,256.887 237.128,256.836 235.567 C 256.709 231.661,257.247 226.939,257.629 228.600 C 258.440 232.123,257.898 252.053,257.077 248.905 C 256.903 248.239,256.698 250.240,256.576 253.800 C 256.440 257.746,256.398 257.947,255.665 258.179 C 255.262 258.307,254.508 259.316,253.991 260.420 C 253.413 261.654,252.540 262.742,251.725 263.246 C 250.886 263.765,250.399 264.383,250.398 264.933 C 250.395 266.726,246.950 270.800,245.437 270.800 C 244.485 270.800,244.662 270.256,246.000 269.063 C 247.302 267.903,247.536 267.200,246.619 267.200 C 245.855 267.200,244.000 268.052,244.000 268.403 C 244.000 268.555,243.280 269.003,242.400 269.400 C 241.520 269.797,240.800 270.270,240.800 270.450 C 240.800 271.176,238.316 272.000,236.120 272.002 C 234.844 272.004,233.296 272.268,232.680 272.589 C 232.064 272.910,229.575 273.344,227.148 273.552 C 222.536 273.949,221.012 274.378,224.033 274.430 L 225.800 274.461 224.529 274.930 C 223.829 275.189,223.126 275.533,222.966 275.697 C 222.805 275.860,222.436 275.796,222.147 275.556 C 221.765 275.239,220.101 275.248,216.110 275.590 C 212.539 275.895,206.553 275.979,199.100 275.827 C 191.480 275.672,187.600 275.729,187.600 275.997 C 187.600 276.656,185.071 276.458,182.209 275.574 C 180.389 275.012,179.598 274.581,179.735 274.226 C 179.965 273.625,177.344 273.209,173.287 273.203 C 171.425 273.201,170.715 273.045,170.545 272.600 C 170.405 272.237,169.801 272.000,169.013 272.000 C 168.292 272.000,167.068 271.563,166.268 271.020 C 165.474 270.482,164.204 269.925,163.446 269.782 C 162.688 269.640,161.661 269.091,161.164 268.562 C 160.667 268.033,159.867 267.600,159.386 267.600 C 158.905 267.600,157.852 267.152,157.045 266.605 C 156.238 266.057,155.043 265.332,154.389 264.994 C 153.735 264.656,153.200 264.134,153.200 263.833 C 153.200 263.533,152.705 263.165,152.100 263.016 C 149.705 262.427,147.600 259.823,147.600 257.449 C 147.600 256.909,147.421 256.407,147.203 256.333 C 146.985 256.260,146.551 255.300,146.240 254.200 C 145.929 253.100,145.381 251.413,145.022 250.451 C 144.442 248.896,144.367 245.412,144.339 218.851 C 144.308 189.458,144.418 186.495,145.592 185.000 C 145.765 184.780,146.111 183.630,146.361 182.444 C 146.647 181.088,147.258 179.784,148.008 178.930 C 148.664 178.183,149.200 177.340,149.200 177.056 C 149.200 176.772,149.640 176.126,150.178 175.620 C 150.716 175.115,151.211 174.229,151.278 173.651 C 151.363 172.923,151.669 172.562,152.275 172.475 C 152.821 172.398,153.198 172.021,153.275 171.475 C 153.363 170.861,153.723 170.563,154.481 170.475 C 155.126 170.401,155.661 170.039,155.808 169.576 C 155.943 169.150,156.536 168.697,157.127 168.568 C 158.978 168.166,160.407 167.517,160.736 166.929 C 160.910 166.617,162.121 166.085,163.426 165.746 C 164.732 165.408,166.070 164.891,166.400 164.598 C 167.689 163.455,172.451 163.290,205.169 163.258 C 239.141 163.225,238.820 163.238,239.302 161.874 C 239.365 161.695,240.731 161.383,242.336 161.182 C 244.216 160.946,245.620 160.528,246.281 160.008 C 246.846 159.563,247.734 159.200,248.254 159.200 C 249.301 159.200,250.800 157.920,250.800 157.027 C 250.800 156.121,253.106 154.689,254.221 154.902 C 254.760 155.005,255.200 154.934,255.200 154.745 C 255.200 154.555,255.562 154.038,256.005 153.595 C 256.719 152.881,256.770 152.537,256.456 150.534 C 256.261 149.293,256.244 147.810,256.417 147.239 C 256.702 146.296,256.734 146.338,256.766 147.700 C 256.826 150.324,258.783 149.363,259.654 146.282 C 259.916 145.357,260.539 143.308,261.039 141.728 C 261.847 139.177,262.450 123.490,261.982 117.200 C 261.957 116.870,262.066 114.884,262.223 112.786 C 262.464 109.573,262.400 108.761,261.819 107.636 L 261.128 106.301 263.023 104.377 L 264.917 102.453 266.359 103.002 C 267.426 103.408,270.834 103.586,279.487 103.688 M306.800 113.680 C 306.800 114.326,306.682 114.442,306.355 114.115 C 306.110 113.870,306.031 113.474,306.178 113.235 C 306.592 112.565,306.800 112.714,306.800 113.680 M316.276 131.500 C 316.175 131.885,316.093 131.570,316.093 130.800 C 316.093 130.030,316.175 129.715,316.276 130.100 C 316.376 130.485,316.376 131.115,316.276 131.500 M317.600 143.000 C 317.600 143.990,317.420 144.800,317.200 144.800 C 316.755 144.800,316.683 143.479,317.052 142.100 C 317.421 140.724,317.600 141.018,317.600 143.000 M156.094 162.954 C 156.624 163.758,156.417 164.000,155.200 164.000 C 154.178 164.000,154.000 163.847,154.000 162.973 C 154.000 161.898,155.390 161.885,156.094 162.954 M317.792 194.025 C 317.549 194.791,317.450 194.833,317.152 194.300 C 316.703 193.497,317.153 192.193,317.693 192.733 C 317.905 192.945,317.950 193.527,317.792 194.025 M232.243 238.968 C 232.443 239.490,232.100 239.542,229.838 239.331 C 227.388 239.102,227.200 239.141,227.200 239.881 C 227.200 240.319,226.549 241.348,225.752 242.168 C 224.450 243.509,224.333 243.806,224.582 245.129 C 224.932 246.987,224.932 247.020,224.583 249.297 C 224.304 251.119,224.349 251.245,225.746 252.525 C 226.546 253.258,227.200 254.233,227.200 254.692 C 227.200 256.330,235.063 255.904,237.059 254.158 C 237.906 253.417,238.911 252.707,239.291 252.581 C 240.292 252.249,241.093 249.362,240.465 248.355 C 240.123 247.809,240.102 247.357,240.391 246.817 C 241.243 245.225,240.332 242.200,238.920 241.928 C 238.453 241.838,238.224 241.406,238.215 240.597 C 238.200 239.415,238.167 239.397,235.518 239.135 C 234.043 238.989,232.650 238.755,232.423 238.614 C 232.177 238.462,232.104 238.606,232.243 238.968 M229.381 242.900 C 229.467 243.175,229.652 244.085,229.791 244.922 L 230.045 246.445 229.210 245.610 C 228.075 244.475,227.657 242.400,228.563 242.400 C 228.927 242.400,229.295 242.625,229.381 242.900 M234.386 249.174 C 235.450 251.162,234.511 252.800,232.306 252.800 C 231.022 252.800,230.400 252.083,230.400 250.600 C 230.400 248.428,233.410 247.351,234.386 249.174 M141.978 313.622 C 141.047 314.553,140.430 315.502,140.552 315.818 C 140.669 316.124,140.593 316.481,140.383 316.611 C 140.172 316.741,140.000 316.617,140.000 316.335 C 140.000 316.053,139.695 316.267,139.323 316.811 C 138.951 317.355,138.542 317.890,138.414 318.000 C 138.286 318.110,137.842 318.740,137.428 319.400 C 137.013 320.060,136.432 320.744,136.137 320.920 C 135.842 321.096,135.600 321.486,135.600 321.787 C 135.600 322.087,135.464 322.393,135.297 322.467 C 135.130 322.540,134.367 323.410,133.601 324.400 C 132.835 325.390,131.801 326.648,131.304 327.196 C 130.136 328.483,130.155 328.620,131.700 330.036 C 132.828 331.069,133.019 331.133,133.145 330.514 C 133.224 330.121,133.539 329.656,133.845 329.480 C 134.150 329.304,134.400 328.914,134.400 328.613 C 134.400 328.313,134.546 328.007,134.725 327.933 C 134.904 327.860,136.008 326.540,137.178 325.000 C 138.348 323.460,139.520 322.020,139.782 321.800 C 140.044 321.580,140.752 320.590,141.355 319.600 C 141.958 318.610,143.069 317.021,143.825 316.069 C 146.425 312.795,144.868 310.732,141.978 313.622 M174.239 312.294 C 174.108 312.426,174.000 313.145,174.000 313.893 C 174.000 316.381,173.498 316.800,170.519 316.800 C 169.060 316.800,167.981 316.914,168.120 317.054 C 168.260 317.193,168.020 317.757,167.587 318.308 C 166.849 319.246,166.800 319.973,166.800 330.054 L 166.800 340.800 168.000 340.800 L 169.200 340.800 169.268 331.300 C 169.306 326.075,169.355 321.467,169.378 321.061 C 169.439 319.974,170.739 319.200,172.503 319.200 C 174.522 319.200,175.437 318.677,175.814 317.311 C 176.543 314.661,175.427 311.106,174.239 312.294 M245.452 312.900 C 245.319 313.395,245.208 314.177,245.205 314.638 C 245.195 316.170,243.867 316.928,241.716 316.631 C 240.310 316.437,239.960 316.480,240.400 316.793 C 240.964 317.194,237.528 317.024,236.100 316.580 C 235.825 316.495,235.600 316.689,235.600 317.013 C 235.600 317.336,235.353 317.600,235.051 317.600 C 234.597 317.600,234.495 320.120,234.462 332.246 C 234.416 348.813,234.582 347.994,231.251 348.013 L 229.000 348.025 230.172 349.055 C 231.515 350.235,235.703 350.314,236.426 349.172 C 236.625 348.857,236.791 342.111,236.794 334.180 C 236.801 317.276,236.275 318.800,242.100 318.800 L 246.441 318.800 247.020 317.414 C 247.643 315.923,247.513 313.459,246.764 312.556 C 246.108 311.766,245.730 311.865,245.452 312.900 M278.800 313.951 C 278.800 316.851,278.775 316.859,269.723 316.871 C 265.365 316.876,262.340 317.005,263.000 317.157 L 264.200 317.434 262.900 317.707 L 261.600 317.980 261.600 321.590 L 261.600 325.200 263.000 325.200 L 264.400 325.200 264.400 322.974 C 264.400 319.083,264.283 319.145,271.526 319.237 C 278.391 319.324,279.779 319.035,280.407 317.381 C 281.255 315.152,280.656 312.000,279.386 312.000 C 278.951 312.000,278.800 312.504,278.800 313.951 M107.056 313.284 C 106.921 313.788,106.808 314.599,106.805 315.086 C 106.797 316.514,105.537 316.860,100.835 316.725 L 96.509 316.600 96.256 321.000 C 95.867 327.771,95.945 341.681,96.370 341.419 C 96.853 341.120,97.058 342.247,96.838 344.000 C 96.674 345.312,96.645 345.337,96.371 344.400 C 96.151 343.645,96.070 343.905,96.040 345.457 C 95.995 347.762,95.723 348.000,93.134 348.000 C 91.340 348.000,91.205 348.664,92.832 349.494 C 96.710 351.473,99.304 348.706,98.546 343.400 C 98.357 342.080,98.215 336.269,98.229 330.487 C 98.260 317.816,97.871 318.690,103.465 318.709 C 108.904 318.728,110.777 317.089,108.929 313.926 C 107.997 312.329,107.370 312.114,107.056 313.284 M124.000 319.200 L 124.000 326.000 124.800 325.200 C 125.240 324.760,125.600 324.248,125.600 324.061 C 125.600 323.875,125.882 323.158,126.227 322.467 C 126.571 321.776,126.743 321.031,126.607 320.811 C 126.471 320.592,126.295 318.988,126.216 317.246 C 126.063 313.907,125.556 312.400,124.586 312.400 C 124.094 312.400,124.000 313.495,124.000 319.200 M211.715 329.100 C 211.725 348.012,211.794 347.415,209.556 347.715 C 207.421 348.001,207.196 348.304,208.395 349.276 C 209.544 350.207,212.461 350.110,213.464 349.108 C 214.427 348.144,214.300 315.231,213.326 313.583 C 211.780 310.965,211.705 311.689,211.715 329.100 M191.200 313.413 C 191.200 313.749,191.470 314.129,191.800 314.255 C 192.130 314.382,192.400 314.659,192.400 314.871 C 192.400 315.084,192.625 315.508,192.900 315.815 C 194.069 317.118,194.400 317.587,194.400 317.940 C 194.400 318.146,194.670 318.418,195.000 318.545 C 195.330 318.671,195.600 318.977,195.600 319.224 C 195.600 319.797,197.699 322.780,198.110 322.791 C 198.770 322.810,196.664 319.484,193.684 315.800 C 193.506 315.580,193.015 314.815,192.594 314.100 C 191.771 312.705,191.200 312.423,191.200 313.413 M313.353 315.676 C 313.191 315.938,313.270 316.223,313.529 316.310 C 313.788 316.396,314.000 317.082,314.000 317.833 C 314.000 318.585,314.180 319.200,314.400 319.200 C 314.902 319.200,314.938 325.067,314.438 325.376 C 314.239 325.499,314.161 326.275,314.265 327.100 C 314.418 328.320,314.259 328.805,313.411 329.700 C 312.236 330.939,311.798 331.102,312.157 330.169 C 312.290 329.822,311.665 330.279,310.768 331.185 C 309.871 332.091,308.639 332.932,308.031 333.054 C 306.513 333.357,306.793 334.551,308.935 336.912 C 309.851 337.922,311.012 339.232,311.515 339.825 C 312.019 340.418,312.522 340.811,312.634 340.699 C 312.746 340.587,312.525 340.183,312.143 339.801 C 309.795 337.452,309.723 335.864,311.899 334.400 C 317.108 330.896,318.586 324.367,315.586 318.108 C 314.174 315.161,313.873 314.834,313.353 315.676 M81.050 317.119 C 80.476 318.047,81.684 318.602,84.408 318.662 C 85.969 318.697,87.686 318.835,88.223 318.970 C 89.097 319.189,89.200 319.088,89.200 318.008 L 89.200 316.800 85.224 316.800 C 83.037 316.800,81.158 316.944,81.050 317.119 M156.438 317.140 C 155.231 317.489,156.150 318.651,157.928 319.024 C 158.518 319.147,159.319 319.422,159.709 319.633 C 160.537 320.082,160.941 319.408,160.732 317.929 C 160.589 316.925,158.503 316.542,156.438 317.140 M219.376 317.238 C 218.772 318.217,220.238 318.733,224.000 318.866 L 227.800 319.000 227.927 317.900 L 228.053 316.800 223.850 316.800 C 221.234 316.800,219.545 316.966,219.376 317.238 M295.577 316.900 C 295.246 318.320,295.546 328.191,295.918 328.160 C 296.183 328.138,296.962 328.093,297.649 328.060 C 298.597 328.014,298.799 327.879,298.487 327.500 C 298.026 326.939,297.896 325.661,297.958 322.315 L 298.000 320.031 299.557 319.612 C 300.414 319.381,301.359 319.269,301.657 319.363 C 305.707 320.635,308.356 319.427,305.453 317.633 C 304.297 316.918,295.720 316.282,295.577 316.900 M198.800 324.376 C 198.800 324.829,198.980 325.200,199.200 325.200 C 199.420 325.200,199.600 324.941,199.600 324.624 C 199.600 324.307,199.420 323.936,199.200 323.800 C 198.980 323.664,198.800 323.923,198.800 324.376 M190.063 335.616 C 190.023 348.114,190.108 347.598,188.076 347.606 C 185.163 347.618,184.679 349.281,187.458 349.732 C 192.644 350.574,192.922 350.063,192.838 339.856 C 192.779 332.748,192.866 331.243,193.360 330.833 C 193.718 330.536,193.843 330.063,193.676 329.636 C 193.214 328.456,190.649 324.400,190.365 324.400 C 190.218 324.400,190.082 329.447,190.063 335.616 M277.769 327.338 C 277.624 327.715,277.614 328.572,277.748 329.241 C 278.136 331.178,277.025 332.962,275.669 332.581 C 274.245 332.180,264.545 331.886,262.900 332.193 L 261.600 332.436 261.600 336.618 L 261.600 340.800 263.000 340.800 L 264.400 340.800 264.406 338.300 C 264.415 334.482,264.176 334.605,271.686 334.567 C 279.678 334.526,279.064 334.624,279.756 333.285 C 280.658 331.541,280.353 328.972,279.095 327.714 C 278.155 326.774,278.002 326.730,277.769 327.338 M202.013 328.700 C 202.006 329.195,202.180 329.600,202.400 329.600 C 202.620 329.600,202.800 329.792,202.800 330.027 C 202.800 330.415,204.416 332.824,205.331 333.800 C 205.566 334.051,205.616 333.722,205.465 332.913 C 205.333 332.204,204.904 331.303,204.513 330.909 C 204.121 330.515,203.401 329.655,202.913 328.997 C 202.077 327.870,202.025 327.853,202.013 328.700 M295.580 331.630 C 295.569 331.724,295.548 334.950,295.532 338.800 C 295.500 347.049,295.323 347.597,292.691 347.606 C 288.414 347.622,289.600 349.654,293.938 349.742 C 297.615 349.816,297.586 349.866,297.594 343.333 C 297.601 337.504,297.736 336.800,298.849 336.800 C 299.563 336.800,299.550 336.704,298.643 335.300 C 298.110 334.475,297.456 333.852,297.188 333.916 C 296.921 333.980,296.788 333.800,296.893 333.516 C 296.998 333.232,296.751 332.654,296.342 332.230 C 295.934 331.807,295.591 331.537,295.580 331.630 M124.034 340.035 C 124.041 347.337,123.949 347.600,121.375 347.600 C 119.370 347.600,118.734 348.255,119.856 349.165 C 121.143 350.207,125.142 349.806,125.605 348.587 C 126.020 347.496,126.214 339.471,125.841 338.866 C 125.701 338.640,125.782 338.335,126.021 338.187 C 126.259 338.040,126.352 337.651,126.226 337.323 C 125.882 336.427,126.376 335.882,127.036 336.430 C 127.834 337.092,127.733 336.423,126.804 334.900 C 126.253 333.996,125.710 333.600,125.020 333.600 L 124.028 333.600 124.034 340.035 M141.200 341.114 C 141.200 341.547,143.374 344.000,143.758 344.000 C 144.241 344.000,142.646 341.554,141.900 341.151 C 141.515 340.942,141.200 340.926,141.200 341.114 M313.481 342.187 C 314.206 343.183,314.800 343.487,314.800 342.862 C 314.800 342.465,313.468 341.200,313.050 341.200 C 312.892 341.200,313.086 341.644,313.481 342.187 M173.999 343.402 C 173.768 344.009,173.690 344.855,173.826 345.281 C 174.471 347.314,173.341 347.599,164.638 347.606 C 156.213 347.613,155.064 347.791,156.295 348.905 C 157.057 349.595,174.821 350.112,175.470 349.464 C 176.243 348.690,176.083 344.208,175.247 343.250 L 174.419 342.299 173.999 343.402 M278.800 344.505 C 278.800 347.588,278.771 347.596,267.569 347.628 C 257.024 347.658,255.867 347.797,257.074 348.882 C 257.842 349.572,279.565 350.167,280.217 349.516 C 280.984 348.750,281.134 345.772,280.474 344.422 C 279.464 342.357,278.800 342.390,278.800 344.505 M145.216 346.981 C 144.861 347.408,143.990 347.600,142.401 347.600 C 138.644 347.600,137.501 347.933,138.326 348.788 C 139.952 350.473,146.404 350.198,146.394 348.445 C 146.385 346.870,145.855 346.211,145.216 346.981 M316.000 347.000 C 315.662 347.407,314.756 347.600,313.184 347.600 C 309.379 347.600,308.507 348.333,311.049 349.395 C 313.700 350.502,317.982 350.159,318.477 348.800 C 319.107 347.066,317.135 345.633,316.000 347.000 M238.400 365.138 C 238.400 365.324,237.967 365.979,237.439 366.594 C 236.910 367.210,236.379 368.206,236.258 368.808 C 236.138 369.411,235.769 370.174,235.439 370.503 C 235.109 370.833,234.721 371.574,234.577 372.149 C 234.433 372.724,234.195 373.121,234.049 373.030 C 233.903 372.940,233.787 373.864,233.791 375.083 C 233.798 376.889,233.652 377.384,233.000 377.750 C 231.690 378.487,231.571 378.961,232.510 379.691 C 234.514 381.248,236.000 380.035,236.000 376.841 C 236.000 375.125,236.705 372.801,237.408 372.200 C 237.666 371.980,238.123 371.170,238.425 370.400 C 239.436 367.818,241.027 367.027,242.415 368.415 C 243.388 369.388,244.000 369.128,244.000 367.741 C 244.000 366.795,243.903 366.746,242.500 366.978 C 241.148 367.201,240.921 367.106,240.200 366.014 C 239.454 364.884,238.400 364.371,238.400 365.138 M146.284 366.005 C 145.728 366.442,144.807 366.800,144.237 366.800 L 143.200 366.800 143.200 370.733 C 143.200 375.178,143.180 375.123,144.751 374.892 C 145.825 374.735,145.920 374.577,146.086 372.661 C 146.201 371.336,146.628 370.072,147.281 369.120 C 148.898 366.765,148.178 364.516,146.284 366.005 M168.493 366.000 C 168.070 366.677,167.560 366.800,165.170 366.800 L 162.347 366.800 162.473 367.890 C 162.597 368.949,162.671 368.980,165.192 368.990 C 167.998 369.001,168.355 369.331,167.828 371.432 C 167.602 372.332,167.401 372.400,164.992 372.400 L 162.400 372.400 162.400 375.013 C 162.400 376.966,162.249 377.683,161.800 377.855 C 160.999 378.163,161.041 378.936,161.900 379.694 C 163.024 380.686,164.271 379.936,164.848 377.921 C 165.492 375.669,165.885 375.200,167.130 375.200 C 167.746 375.200,168.686 374.692,169.462 373.940 L 170.763 372.679 169.981 371.686 C 168.920 370.336,168.999 369.275,170.200 368.727 C 171.363 368.197,171.452 367.557,170.554 366.186 C 169.771 364.991,169.157 364.936,168.493 366.000 M251.800 366.000 C 251.402 366.440,250.643 366.800,250.114 366.800 C 249.576 366.800,249.261 366.976,249.399 367.199 C 249.670 367.637,248.417 370.000,247.914 370.000 C 247.741 370.000,247.600 370.720,247.600 371.600 C 247.600 372.480,247.780 373.200,248.000 373.200 C 248.220 373.200,248.400 373.650,248.400 374.200 C 248.400 374.750,248.220 375.200,248.000 375.200 C 247.780 375.200,247.600 375.771,247.600 376.469 C 247.600 377.166,247.305 378.063,246.945 378.461 C 246.411 379.051,246.383 379.297,246.794 379.792 C 247.523 380.671,248.633 380.539,249.471 379.473 C 250.212 378.531,250.230 378.127,249.748 373.119 C 249.472 370.254,250.133 369.167,252.505 368.583 C 254.322 368.135,254.949 366.944,253.982 365.778 C 253.324 364.985,252.657 365.053,251.800 366.000 M265.898 366.223 C 265.795 366.760,265.866 367.200,266.055 367.200 C 266.245 367.200,266.376 367.875,266.347 368.700 L 266.295 370.200 265.983 368.800 C 265.801 367.982,265.742 369.376,265.840 372.154 C 266.016 377.123,265.792 378.000,264.351 378.000 C 263.116 378.000,263.538 379.132,265.074 379.940 C 266.935 380.920,268.000 379.280,268.000 375.436 C 268.000 374.232,268.172 373.141,268.383 373.011 C 268.593 372.881,268.702 372.555,268.624 372.287 C 268.547 372.019,268.261 370.524,267.989 368.964 C 267.449 365.856,266.264 364.305,265.898 366.223 M299.005 366.100 C 298.890 366.595,298.751 369.430,298.697 372.400 L 298.600 377.800 297.208 378.000 L 295.815 378.200 297.003 379.300 C 298.459 380.647,298.850 380.663,300.278 379.434 L 301.400 378.467 301.265 372.946 C 301.111 366.648,299.803 362.684,299.005 366.100 M127.186 366.700 C 127.178 367.305,127.073 369.077,126.951 370.637 C 126.736 373.400,127.213 374.800,128.370 374.800 C 128.788 374.800,129.252 368.467,128.927 367.200 C 128.464 365.397,127.207 365.036,127.186 366.700 M134.834 369.855 C 134.887 374.886,134.630 375.760,132.579 377.512 C 130.993 378.867,130.400 379.095,130.400 378.351 C 130.400 378.045,130.240 378.030,129.900 378.302 C 129.615 378.529,129.056 378.562,128.600 378.379 C 125.705 377.212,125.585 378.930,128.470 380.232 C 130.914 381.334,133.403 380.788,135.484 378.694 L 137.167 377.000 137.284 371.738 C 137.411 365.964,137.462 366.181,135.893 365.788 L 134.787 365.510 134.834 369.855 M258.191 366.840 C 257.869 368.306,258.392 368.983,259.560 368.613 C 260.560 368.295,260.622 367.694,259.777 366.489 C 258.930 365.280,258.514 365.372,258.191 366.840 M199.891 368.426 C 199.710 370.423,199.453 371.175,198.729 371.821 C 197.430 372.980,197.439 373.408,198.790 374.790 C 200.122 376.153,200.972 376.372,200.620 375.263 C 200.486 374.839,200.706 374.116,201.138 373.563 C 202.748 371.502,202.719 369.102,201.060 367.030 L 200.124 365.860 199.891 368.426 M223.520 366.480 C 223.784 366.744,224.000 367.518,224.000 368.200 C 224.000 368.882,223.784 369.656,223.520 369.920 C 223.147 370.293,223.150 370.400,223.536 370.400 C 224.093 370.400,223.746 370.902,222.004 372.619 C 221.201 373.410,220.600 373.600,218.904 373.600 L 216.800 373.600 216.800 375.592 C 216.800 377.384,216.699 377.610,215.800 377.836 C 214.529 378.155,214.521 378.999,215.780 379.824 C 217.366 380.863,219.200 379.569,219.200 377.410 C 219.200 376.775,221.347 375.600,222.508 375.600 C 225.560 375.600,227.266 369.260,224.803 367.066 C 223.628 366.019,222.580 365.540,223.520 366.480 M230.813 366.411 C 230.833 367.359,231.873 368.529,232.210 367.984 C 232.368 367.728,232.115 367.137,231.649 366.671 C 231.024 366.046,230.803 365.978,230.813 366.411 M291.900 366.265 C 292.175 366.376,292.400 366.702,292.400 366.991 C 292.400 367.279,292.670 367.618,293.000 367.745 C 293.330 367.871,293.603 368.296,293.606 368.687 C 293.611 369.248,293.687 369.283,293.961 368.849 C 294.153 368.546,294.511 368.421,294.755 368.572 C 295.000 368.724,295.200 368.678,295.200 368.471 C 295.200 367.951,292.573 365.993,291.927 366.032 C 291.524 366.056,291.517 366.111,291.900 366.265 M112.239 367.263 C 112.435 367.580,112.253 367.655,111.660 367.500 C 110.800 367.275,109.600 368.394,109.600 369.421 C 109.600 370.340,111.557 371.010,112.105 370.279 C 112.377 369.915,113.320 369.471,114.200 369.292 C 116.491 368.827,116.693 367.419,114.521 367.060 C 112.339 366.700,111.914 366.737,112.239 367.263 M192.954 367.377 C 192.832 367.694,192.817 368.279,192.920 368.677 C 193.045 369.161,193.123 369.046,193.154 368.327 C 193.190 367.478,193.430 367.218,194.300 367.087 L 195.400 366.920 194.287 366.860 C 193.642 366.825,193.082 367.042,192.954 367.377 M216.800 368.355 C 216.800 369.776,216.903 369.924,218.001 370.085 C 220.100 370.394,221.489 367.585,219.500 367.052 C 217.292 366.460,216.800 366.698,216.800 368.355 M275.439 367.263 C 275.634 367.579,275.456 367.656,274.877 367.504 C 272.524 366.889,272.010 373.458,274.354 374.190 C 275.220 374.461,275.286 374.395,275.059 373.492 C 274.413 370.921,276.596 368.974,279.198 369.799 C 279.938 370.034,280.046 369.937,279.933 369.139 C 279.824 368.375,279.433 368.121,277.800 367.758 C 275.962 367.350,275.897 367.298,277.000 367.117 C 278.101 366.936,278.074 366.915,276.676 366.860 C 275.613 366.818,275.239 366.940,275.439 367.263 M283.200 367.176 C 283.200 367.409,283.394 367.600,283.632 367.600 C 283.914 367.600,284.018 368.638,283.932 370.597 C 283.838 372.727,283.945 373.648,284.300 373.784 C 285.509 374.246,284.210 375.910,282.941 375.524 C 282.754 375.467,282.079 375.910,281.442 376.510 C 280.804 377.109,279.904 377.613,279.442 377.628 C 278.646 377.655,278.642 377.673,279.371 377.958 C 280.050 378.224,280.063 378.290,279.484 378.513 C 279.122 378.651,278.719 378.592,278.589 378.381 C 278.438 378.137,278.088 378.139,277.627 378.386 C 277.160 378.636,276.423 378.636,275.554 378.387 C 272.283 377.449,272.040 378.520,275.189 379.995 C 282.374 383.360,289.887 374.449,285.000 368.359 C 284.026 367.145,283.200 366.603,283.200 367.176 M120.000 368.010 C 120.000 368.515,119.586 368.994,118.900 369.281 C 117.879 369.710,117.862 369.754,118.658 369.894 C 120.239 370.172,120.990 371.393,120.240 372.465 C 119.888 372.967,119.600 373.692,119.600 374.076 C 119.600 375.121,117.030 377.486,115.537 377.814 C 114.816 377.972,113.910 378.299,113.523 378.541 C 113.002 378.866,112.693 378.853,112.330 378.490 C 111.684 377.844,109.479 377.838,109.694 378.482 C 109.944 379.233,113.260 380.776,114.651 380.789 C 118.099 380.820,122.400 377.475,122.400 374.762 C 122.400 374.369,122.580 373.936,122.800 373.800 C 123.454 373.396,123.263 372.000,122.553 372.000 C 122.105 372.000,121.970 371.756,122.115 371.205 C 122.233 370.753,121.993 369.991,121.561 369.442 C 121.143 368.909,120.800 368.187,120.800 367.837 C 120.800 367.487,120.620 367.200,120.400 367.200 C 120.180 367.200,120.000 367.564,120.000 368.010 M139.628 367.500 C 139.738 368.673,140.346 369.326,140.372 368.300 C 140.387 367.695,140.220 367.200,140.000 367.200 C 139.780 367.200,139.613 367.335,139.628 367.500 M179.488 367.624 C 177.219 368.005,176.013 368.806,175.145 370.508 L 174.362 372.042 175.741 373.421 C 176.499 374.179,177.363 374.797,177.660 374.794 C 178.021 374.790,178.055 374.691,177.762 374.494 C 175.627 373.062,177.354 369.400,180.165 369.400 C 182.041 369.400,182.348 369.072,181.487 367.985 C 181.128 367.531,180.602 367.436,179.488 367.624 M186.000 370.571 C 186.000 372.679,185.826 373.717,185.400 374.143 C 185.070 374.473,184.800 374.906,184.800 375.105 C 184.800 375.668,182.479 377.600,181.803 377.600 C 181.472 377.600,181.200 377.791,181.200 378.024 C 181.200 378.257,181.048 378.353,180.862 378.239 C 180.677 378.124,179.845 378.218,179.015 378.447 C 177.947 378.742,177.377 378.737,177.072 378.432 C 176.834 378.194,176.101 378.000,175.441 378.000 L 174.242 378.000 175.941 379.249 C 177.960 380.734,182.674 381.315,183.605 380.194 C 183.876 379.867,184.440 379.600,184.859 379.600 C 185.291 379.600,185.775 379.191,185.979 378.655 C 186.177 378.135,186.613 377.604,186.947 377.476 C 187.282 377.347,187.673 376.615,187.817 375.849 C 187.961 375.082,188.324 374.361,188.625 374.246 C 189.082 374.070,189.076 373.854,188.588 372.918 C 188.267 372.303,188.004 371.467,188.002 371.060 C 187.999 370.096,186.811 367.600,186.354 367.600 C 186.159 367.600,186.000 368.937,186.000 370.571 M290.655 371.078 C 290.515 371.219,290.400 372.760,290.400 374.504 C 290.400 377.338,290.315 377.697,289.600 377.884 C 288.637 378.136,288.613 378.355,289.423 379.511 C 290.283 380.739,291.759 380.646,292.762 379.300 C 293.213 378.695,293.888 377.885,294.261 377.500 C 294.666 377.082,294.750 376.800,294.470 376.800 C 294.211 376.800,294.000 376.426,294.000 375.969 C 294.000 375.018,291.041 370.692,290.655 371.078 M109.621 373.082 C 110.246 374.087,113.823 374.762,115.008 374.100 C 115.517 373.815,115.015 373.663,113.042 373.504 C 111.585 373.387,110.095 373.046,109.732 372.746 C 109.130 372.248,109.120 372.278,109.621 373.082 M258.267 372.667 C 258.120 372.813,258.000 373.971,258.000 375.240 C 258.000 377.195,257.878 377.585,257.200 377.800 C 255.766 378.255,256.468 380.400,258.051 380.400 C 258.926 380.400,260.500 378.437,260.216 377.698 C 259.926 376.942,260.693 375.600,261.414 375.600 C 261.831 375.600,262.000 375.138,262.000 374.000 L 262.000 372.400 260.267 372.400 C 259.313 372.400,258.413 372.520,258.267 372.667 M259.600 373.092 C 259.270 373.217,258.868 373.518,258.706 373.760 C 258.525 374.031,258.410 373.932,258.406 373.500 C 258.402 373.030,258.695 372.810,259.300 372.832 C 259.901 372.853,260.001 372.939,259.600 373.092 M193.201 373.811 C 193.200 374.037,193.749 374.823,194.420 375.557 C 195.929 377.210,195.620 377.752,194.034 376.232 C 193.373 375.600,192.887 375.354,192.901 375.662 C 192.968 377.105,192.720 377.605,191.827 377.829 C 190.766 378.095,190.830 378.995,191.975 379.887 C 192.941 380.640,193.828 380.492,194.858 379.407 C 196.037 378.164,196.280 378.166,198.531 379.424 C 200.810 380.698,202.256 380.275,201.803 378.468 C 201.458 377.095,201.290 376.950,200.713 377.527 C 199.812 378.428,196.429 378.121,196.018 377.100 C 195.578 376.008,193.202 373.234,193.201 373.811 M146.302 377.131 C 146.065 378.037,143.247 378.595,141.019 378.177 C 139.135 377.824,139.067 378.879,140.900 380.024 C 142.967 381.317,148.000 380.329,148.000 378.631 C 148.000 377.318,146.581 376.064,146.302 377.131 " stroke="none" fill="#214365" fill-rule="evenodd"></path>
    </g>
</svg>